<?xml version="1.0" standalone="no"?><!DOCTYPE svg PUBLIC "-//W3C//DTD SVG 1.1//EN" "http://www.w3.org/Graphics/SVG/1.1/DTD/svg11.dtd"><svg xmlns:xlink="http://www.w3.org/1999/xlink" version="1.1" style="font-family:open sans;font-size:12px;" xmlns="http://www.w3.org/2000/svg" width="1040" height="410"><desc>Created with Highcharts 4.1.5</desc><defs><clipPath id="highcharts-68"><rect x="0" y="0" width="828" height="196"></rect></clipPath></defs><rect x="0" y="0" width="1040" height="410" strokeWidth="0" fill="#FFFFFF" class=" highcharts-background"></rect><g class="highcharts-grid" ></g><g class="highcharts-grid" ></g><g class="highcharts-grid" ><path fill="none" d="M 127 332.5 L 955 332.5" stroke="#D8D8D8" stroke-width="1"  opacity="1"></path><path fill="none" d="M 127 267.5 L 955 267.5" stroke="#D8D8D8" stroke-width="1"  opacity="1"></path><path fill="none" d="M 127 201.5 L 955 201.5" stroke="#D8D8D8" stroke-width="1"  opacity="1"></path><path fill="none" d="M 127 135.5 L 955 135.5" stroke="#D8D8D8" stroke-width="1"  opacity="1"></path></g><g class="highcharts-grid" ><path fill="none" d="M 127 332.5 L 955 332.5" stroke="#D8D8D8" stroke-width="1"  opacity="1"></path><path fill="none" d="M 127 267.5 L 955 267.5" stroke="#D8D8D8" stroke-width="1"  opacity="1"></path><path fill="none" d="M 127 201.5 L 955 201.5" stroke="#D8D8D8" stroke-width="1"  opacity="1"></path><path fill="none" d="M 127 135.5 L 955 135.5" stroke="#D8D8D8" stroke-width="1"  opacity="1"></path></g><g class="highcharts-axis" ><path fill="none" d="M 201.5 332 L 201.5 342" stroke="#C0D0E0" stroke-width="1" opacity="1"></path><path fill="none" d="M 277.5 332 L 277.5 342" stroke="#C0D0E0" stroke-width="1" opacity="1"></path><path fill="none" d="M 352.5 332 L 352.5 342" stroke="#C0D0E0" stroke-width="1" opacity="1"></path><path fill="none" d="M 427.5 332 L 427.5 342" stroke="#C0D0E0" stroke-width="1" opacity="1"></path><path fill="none" d="M 502.5 332 L 502.5 342" stroke="#C0D0E0" stroke-width="1" opacity="1"></path><path fill="none" d="M 578.5 332 L 578.5 342" stroke="#C0D0E0" stroke-width="1" opacity="1"></path><path fill="none" d="M 653.5 332 L 653.5 342" stroke="#C0D0E0" stroke-width="1" opacity="1"></path><path fill="none" d="M 728.5 332 L 728.5 342" stroke="#C0D0E0" stroke-width="1" opacity="1"></path><path fill="none" d="M 803.5 332 L 803.5 342" stroke="#C0D0E0" stroke-width="1" opacity="1"></path><path fill="none" d="M 879.5 332 L 879.5 342" stroke="#C0D0E0" stroke-width="1" opacity="1"></path><path fill="none" d="M 954.5 332 L 954.5 342" stroke="#C0D0E0" stroke-width="1" opacity="1"></path><path fill="none" d="M 126.5 332 L 126.5 342" stroke="#C0D0E0" stroke-width="1" opacity="1"></path><path fill="none" d="M 127 332.5 L 955 332.5" stroke="#C0D0E0" stroke-width="1"  visibility="visible"></path></g><g class="highcharts-axis" ><path fill="none" d="M 201.5 136 L 201.5 126" stroke="#C0D0E0" stroke-width="1" opacity="1"></path><path fill="none" d="M 277.5 136 L 277.5 126" stroke="#C0D0E0" stroke-width="1" opacity="1"></path><path fill="none" d="M 352.5 136 L 352.5 126" stroke="#C0D0E0" stroke-width="1" opacity="1"></path><path fill="none" d="M 427.5 136 L 427.5 126" stroke="#C0D0E0" stroke-width="1" opacity="1"></path><path fill="none" d="M 502.5 136 L 502.5 126" stroke="#C0D0E0" stroke-width="1" opacity="1"></path><path fill="none" d="M 578.5 136 L 578.5 126" stroke="#C0D0E0" stroke-width="1" opacity="1"></path><path fill="none" d="M 653.5 136 L 653.5 126" stroke="#C0D0E0" stroke-width="1" opacity="1"></path><path fill="none" d="M 728.5 136 L 728.5 126" stroke="#C0D0E0" stroke-width="1" opacity="1"></path><path fill="none" d="M 803.5 136 L 803.5 126" stroke="#C0D0E0" stroke-width="1" opacity="1"></path><path fill="none" d="M 879.5 136 L 879.5 126" stroke="#C0D0E0" stroke-width="1" opacity="1"></path><path fill="none" d="M 954.5 136 L 954.5 126" stroke="#C0D0E0" stroke-width="1" opacity="1"></path><path fill="none" d="M 126.5 136 L 126.5 126" stroke="#C0D0E0" stroke-width="1" opacity="1"></path><path fill="none" d="M 127 135.5 L 955 135.5" stroke="#C0D0E0" stroke-width="1"  visibility="visible"></path></g><g class="highcharts-axis" ><text x="1013.828125"  text-anchor="middle" transform="translate(0,0) rotate(90 1013.828125 234)" class=" highcharts-yaxis-title" style="color:#000000;fill:#000000;" visibility="visible" y="234"><tspan>Nicholas Cage</tspan></text></g><g class="highcharts-axis" ><text x="26.421875"  text-anchor="middle" transform="translate(0,0) rotate(270 26.421875 234)" class=" highcharts-yaxis-title" style="color:#ba0f27;fill:#ba0f27;" visibility="visible" y="234"><tspan>Swimming pool drownings</tspan></text></g><g class="highcharts-series-group" ><g class="highcharts-series" visibility="visible"  transform="translate(127,136) scale(1 1)" clip-path="url(#highcharts-68)"><path fill="none" d="M 37.63636363636363 130.66666666666669 C 37.63636363636363 130.66666666666669 82.8 130.66666666666669 112.9090909090909 130.66666666666669 C 143.0181818181818 130.66666666666669 158.07272727272726 130.66666666666669 188.18181818181816 130.66666666666669 C 218.2909090909091 130.66666666666669 233.34545454545452 98 263.45454545454544 98 C 293.5636363636363 98 308.6181818181818 163.33333333333334 338.7272727272727 163.33333333333334 C 368.8363636363636 163.33333333333334 383.890909090909 163.33333333333334 413.99999999999994 163.33333333333334 C 444.1090909090908 163.33333333333334 459.16363636363633 143.73333333333335 489.27272727272725 130.66666666666669 C 519.3818181818182 117.60000000000001 534.4363636363636 111.06666666666668 564.5454545454545 98 C 594.6545454545454 84.93333333333334 609.7090909090908 65.33333333333334 639.8181818181818 65.33333333333334 C 669.9272727272726 65.33333333333334 684.9818181818181 163.33333333333334 715.090909090909 163.33333333333334 C 745.1999999999999 163.33333333333334 790.3636363636363 65.33333333333334 790.3636363636363 65.33333333333334" stroke="#000000" stroke-width="2"  stroke-linejoin="round" stroke-linecap="round"></path></g><g class="highcharts-markers" visibility="visible"  transform="translate(127,136) scale(1 1)" clip-path="none"><path fill="#000000" d="M 790 61.33333333333334 C 795.328 61.33333333333334 795.328 69.33333333333334 790 69.33333333333334 C 784.672 69.33333333333334 784.672 61.33333333333334 790 61.33333333333334 Z"></path><path fill="#000000" d="M 715 159.33333333333334 C 720.328 159.33333333333334 720.328 167.33333333333334 715 167.33333333333334 C 709.672 167.33333333333334 709.672 159.33333333333334 715 159.33333333333334 Z"></path><path fill="#000000" d="M 639 61.33333333333334 C 644.328 61.33333333333334 644.328 69.33333333333334 639 69.33333333333334 C 633.672 69.33333333333334 633.672 61.33333333333334 639 61.33333333333334 Z"></path><path fill="#000000" d="M 564 94 C 569.328 94 569.328 102 564 102 C 558.672 102 558.672 94 564 94 Z"></path><path fill="#000000" d="M 489 126.66666666666669 C 494.328 126.66666666666669 494.328 134.66666666666669 489 134.66666666666669 C 483.672 134.66666666666669 483.672 126.66666666666669 489 126.66666666666669 Z"></path><path fill="#000000" d="M 413 159.33333333333334 C 418.328 159.33333333333334 418.328 167.33333333333334 413 167.33333333333334 C 407.672 167.33333333333334 407.672 159.33333333333334 413 159.33333333333334 Z"></path><path fill="#000000" d="M 338 159.33333333333334 C 343.328 159.33333333333334 343.328 167.33333333333334 338 167.33333333333334 C 332.672 167.33333333333334 332.672 159.33333333333334 338 159.33333333333334 Z"></path><path fill="#000000" d="M 263 94 C 268.328 94 268.328 102 263 102 C 257.672 102 257.672 94 263 94 Z"></path><path fill="#000000" d="M 188 126.66666666666669 C 193.328 126.66666666666669 193.328 134.66666666666669 188 134.66666666666669 C 182.672 134.66666666666669 182.672 126.66666666666669 188 126.66666666666669 Z"></path><path fill="#000000" d="M 112 126.66666666666669 C 117.328 126.66666666666669 117.328 134.66666666666669 112 134.66666666666669 C 106.672 134.66666666666669 106.672 126.66666666666669 112 126.66666666666669 Z"></path><path fill="#000000" d="M 37 126.66666666666669 C 42.328 126.66666666666669 42.328 134.66666666666669 37 134.66666666666669 C 31.672 134.66666666666669 31.672 126.66666666666669 37 126.66666666666669 Z"></path></g><g class="highcharts-series" visibility="visible"  transform="translate(127,136) scale(1 1)" clip-path="url(#highcharts-68)"><path fill="none" d="M 37.63636363636363 101.26666666666667 C 37.63636363636363 101.26666666666667 82.8 124.13333333333334 112.9090909090909 124.13333333333334 C 143.0181818181818 124.13333333333334 158.07272727272726 124.13333333333334 188.18181818181816 124.13333333333334 C 218.2909090909091 124.13333333333334 233.34545454545452 126.0933333333333 263.45454545454544 137.2 C 293.5636363636363 148.30666666666664 308.6181818181818 179.66666666666666 338.7272727272727 179.66666666666666 C 368.8363636363636 179.66666666666666 383.890909090909 150.26666666666665 413.99999999999994 147 C 444.1090909090908 143.73333333333335 459.16363636363633 145.69333333333336 489.27272727272725 143.73333333333335 C 519.3818181818182 141.77333333333334 534.4363636363636 143.73333333333335 564.5454545454545 137.2 C 594.6545454545454 130.66666666666663 609.7090909090908 55.53333333333333 639.8181818181818 55.53333333333333 C 669.9272727272726 55.53333333333333 684.9818181818181 150.26666666666665 715.090909090909 150.26666666666665 C 745.1999999999999 150.26666666666665 790.3636363636363 124.13333333333334 790.3636363636363 124.13333333333334" stroke="#ba0f27" stroke-width="2"  stroke-linejoin="round" stroke-linecap="round"></path></g><g class="highcharts-markers" visibility="visible"  transform="translate(127,136) scale(1 1)" clip-path="none"><path fill="#ba0f27" d="M 790 120.13333333333334 L 794 124.13333333333334 790 128.13333333333333 786 124.13333333333334 Z"></path><path fill="#ba0f27" d="M 715 146.26666666666665 L 719 150.26666666666665 715 154.26666666666665 711 150.26666666666665 Z"></path><path fill="#ba0f27" d="M 639 51.53333333333333 L 643 55.53333333333333 639 59.53333333333333 635 55.53333333333333 Z"></path><path fill="#ba0f27" d="M 564 133.2 L 568 137.2 564 141.2 560 137.2 Z"></path><path fill="#ba0f27" d="M 489 139.73333333333335 L 493 143.73333333333335 489 147.73333333333335 485 143.73333333333335 Z"></path><path fill="#ba0f27" d="M 413 143 L 417 147 413 151 409 147 Z"></path><path fill="#ba0f27" d="M 338 175.66666666666666 L 342 179.66666666666666 338 183.66666666666666 334 179.66666666666666 Z"></path><path fill="#ba0f27" d="M 263 133.2 L 267 137.2 263 141.2 259 137.2 Z"></path><path fill="#ba0f27" d="M 188 120.13333333333334 L 192 124.13333333333334 188 128.13333333333333 184 124.13333333333334 Z"></path><path fill="#ba0f27" d="M 112 120.13333333333334 L 116 124.13333333333334 112 128.13333333333333 108 124.13333333333334 Z"></path><path fill="#ba0f27" d="M 37 97.26666666666667 L 41 101.26666666666667 37 105.26666666666667 33 101.26666666666667 Z"></path></g></g><text x="520" text-anchor="middle" class="highcharts-title"  style="color:#777;font-size:18px;fill:#777;width:976px;" y="24"><tspan style="fill:#ba0f27;font-size:24px;font-weight:bold;font-family: 'lora'">Number of people who drowned by falling into a pool</tspan><tspan style="font-family: 'lora'" x="520" dy="21"> correlates with </tspan><tspan style="fill:#000000;font-size:24px;font-weight:bold;font-family: 'lora'" x="520" dy="29">Films Nicolas Cage appeared in</tspan></text><g class="highcharts-legend"  transform="translate(360,367)"><g ><g><g class="highcharts-legend-item"  transform="translate(8,3)"><path fill="none" d="M 0 11 L 16 11" stroke="#000000" stroke-width="2"></path><path fill="#000000" d="M 8 7 C 13.328 7 13.328 15 8 15 C 2.6719999999999997 15 2.6719999999999997 7 8 7 Z"></path><text x="21" style="color:#333333;font-size:12px;font-weight:bold;cursor:pointer;fill:#333333;" text-anchor="start"  y="15"><tspan>Nicholas Cage</tspan></text></g><g class="highcharts-legend-item"  transform="translate(132.6640625,3)"><path fill="none" d="M 0 11 L 16 11" stroke="#ba0f27" stroke-width="2"></path><path fill="#ba0f27" d="M 8 7 L 12 11 8 15 4 11 Z"></path><text x="21" y="15" style="color:#333333;font-size:12px;font-weight:bold;cursor:pointer;fill:#333333;" text-anchor="start" ><tspan>Swimming pool drownings</tspan></text></g></g></g></g><g class="highcharts-axis-labels highcharts-xaxis-labels" ><text x="164.63636363636363" style="color:#000000;cursor:default;font-size:11px;fill:#000000;width:75.27272727272727;text-overflow:ellipsis;" text-anchor="middle" transform="translate(0,0)" y="351" opacity="1"><tspan>1999</tspan></text><text x="239.90909090909088" style="color:#000000;cursor:default;font-size:11px;fill:#000000;width:75.27272727272727;text-overflow:ellipsis;" text-anchor="middle" transform="translate(0,0)" y="351" opacity="1"><tspan>2000</tspan></text><text x="315.18181818181813" style="color:#000000;cursor:default;font-size:11px;fill:#000000;width:75.27272727272727;text-overflow:ellipsis;" text-anchor="middle" transform="translate(0,0)" y="351" opacity="1"><tspan>2001</tspan></text><text x="390.45454545454544" style="color:#000000;cursor:default;font-size:11px;fill:#000000;width:75.27272727272727;text-overflow:ellipsis;" text-anchor="middle" transform="translate(0,0)" y="351" opacity="1"><tspan>2002</tspan></text><text x="465.7272727272727" style="color:#000000;cursor:default;font-size:11px;fill:#000000;width:75.27272727272727;text-overflow:ellipsis;" text-anchor="middle" transform="translate(0,0)" y="351" opacity="1"><tspan>2003</tspan></text><text x="540.9999999999999" style="color:#000000;cursor:default;font-size:11px;fill:#000000;width:75.27272727272727;text-overflow:ellipsis;" text-anchor="middle" transform="translate(0,0)" y="351" opacity="1"><tspan>2004</tspan></text><text x="616.2727272727273" style="color:#000000;cursor:default;font-size:11px;fill:#000000;width:75.27272727272727;text-overflow:ellipsis;" text-anchor="middle" transform="translate(0,0)" y="351" opacity="1"><tspan>2005</tspan></text><text x="691.5454545454545" style="color:#000000;cursor:default;font-size:11px;fill:#000000;width:75.27272727272727;text-overflow:ellipsis;" text-anchor="middle" transform="translate(0,0)" y="351" opacity="1"><tspan>2006</tspan></text><text x="766.8181818181818" style="color:#000000;cursor:default;font-size:11px;fill:#000000;width:75.27272727272727;text-overflow:ellipsis;" text-anchor="middle" transform="translate(0,0)" y="351" opacity="1"><tspan>2007</tspan></text><text x="842.090909090909" style="color:#000000;cursor:default;font-size:11px;fill:#000000;width:75.27272727272727;text-overflow:ellipsis;" text-anchor="middle" transform="translate(0,0)" y="351" opacity="1"><tspan>2008</tspan></text><text x="917.3636363636363" style="color:#000000;cursor:default;font-size:11px;fill:#000000;width:75.27272727272727;text-overflow:ellipsis;" text-anchor="middle" transform="translate(0,0)" y="351" opacity="1"><tspan>2009</tspan></text></g><g class="highcharts-axis-labels highcharts-xaxis-labels" ><text x="164.63636363636363" style="color:#ba0f27;cursor:default;font-size:11px;fill:#ba0f27;width:75.27272727272727;text-overflow:ellipsis;" text-anchor="middle" transform="translate(0,0)" y="121" opacity="1"><tspan>1999</tspan></text><text x="239.90909090909088" style="color:#ba0f27;cursor:default;font-size:11px;fill:#ba0f27;width:75.27272727272727;text-overflow:ellipsis;" text-anchor="middle" transform="translate(0,0)" y="121" opacity="1"><tspan>2000</tspan></text><text x="315.18181818181813" style="color:#ba0f27;cursor:default;font-size:11px;fill:#ba0f27;width:75.27272727272727;text-overflow:ellipsis;" text-anchor="middle" transform="translate(0,0)" y="121" opacity="1"><tspan>2001</tspan></text><text x="390.45454545454544" style="color:#ba0f27;cursor:default;font-size:11px;fill:#ba0f27;width:75.27272727272727;text-overflow:ellipsis;" text-anchor="middle" transform="translate(0,0)" y="121" opacity="1"><tspan>2002</tspan></text><text x="465.7272727272727" style="color:#ba0f27;cursor:default;font-size:11px;fill:#ba0f27;width:75.27272727272727;text-overflow:ellipsis;" text-anchor="middle" transform="translate(0,0)" y="121" opacity="1"><tspan>2003</tspan></text><text x="540.9999999999999" style="color:#ba0f27;cursor:default;font-size:11px;fill:#ba0f27;width:75.27272727272727;text-overflow:ellipsis;" text-anchor="middle" transform="translate(0,0)" y="121" opacity="1"><tspan>2004</tspan></text><text x="616.2727272727273" style="color:#ba0f27;cursor:default;font-size:11px;fill:#ba0f27;width:75.27272727272727;text-overflow:ellipsis;" text-anchor="middle" transform="translate(0,0)" y="121" opacity="1"><tspan>2005</tspan></text><text x="691.5454545454545" style="color:#ba0f27;cursor:default;font-size:11px;fill:#ba0f27;width:75.27272727272727;text-overflow:ellipsis;" text-anchor="middle" transform="translate(0,0)" y="121" opacity="1"><tspan>2006</tspan></text><text x="766.8181818181818" style="color:#ba0f27;cursor:default;font-size:11px;fill:#ba0f27;width:75.27272727272727;text-overflow:ellipsis;" text-anchor="middle" transform="translate(0,0)" y="121" opacity="1"><tspan>2007</tspan></text><text x="842.090909090909" style="color:#ba0f27;cursor:default;font-size:11px;fill:#ba0f27;width:75.27272727272727;text-overflow:ellipsis;" text-anchor="middle" transform="translate(0,0)" y="121" opacity="1"><tspan>2008</tspan></text><text x="917.3636363636363" style="color:#ba0f27;cursor:default;font-size:11px;fill:#ba0f27;width:75.27272727272727;text-overflow:ellipsis;" text-anchor="middle" transform="translate(0,0)" y="121" opacity="1"><tspan>2009</tspan></text></g><g class="highcharts-axis-labels highcharts-yaxis-labels" ><text x="970" style="color:#000000;cursor:default;font-size:11px;fill:#000000;width:333px;text-overflow:clip;" text-anchor="start" transform="translate(0,0)" y="336" opacity="1"><tspan>0 films</tspan></text><text x="970" style="color:#000000;cursor:default;font-size:11px;fill:#000000;width:333px;text-overflow:clip;" text-anchor="start" transform="translate(0,0)" y="270" opacity="1"><tspan>2 films</tspan></text><text x="970" style="color:#000000;cursor:default;font-size:11px;fill:#000000;width:333px;text-overflow:clip;" text-anchor="start" transform="translate(0,0)" y="205" opacity="1"><tspan>4 films</tspan></text><text x="970" style="color:#000000;cursor:default;font-size:11px;fill:#000000;width:333px;text-overflow:clip;" text-anchor="start" transform="translate(0,0)" y="140" opacity="1"><tspan>6 films</tspan></text></g><g class="highcharts-axis-labels highcharts-yaxis-labels" ><text x="112" style="color:#ba0f27;cursor:default;font-size:11px;fill:#ba0f27;width:333px;text-overflow:clip;" text-anchor="end" transform="translate(0,0)" y="336" opacity="1"><tspan>80 drownings</tspan></text><text x="112" style="color:#ba0f27;cursor:default;font-size:11px;fill:#ba0f27;width:333px;text-overflow:clip;" text-anchor="end" transform="translate(0,0)" y="270" opacity="1"><tspan>100 drownings</tspan></text><text x="112" style="color:#ba0f27;cursor:default;font-size:11px;fill:#ba0f27;width:333px;text-overflow:clip;" text-anchor="end" transform="translate(0,0)" y="205" opacity="1"><tspan>120 drownings</tspan></text><text x="112" style="color:#ba0f27;cursor:default;font-size:11px;fill:#ba0f27;width:333px;text-overflow:clip;" text-anchor="end" transform="translate(0,0)" y="140" opacity="1"><tspan>140 drownings</tspan></text></g><g class="highcharts-tooltip"  style="cursor:default;padding:0;white-space:nowrap;" transform="translate(0,-9999)"><path fill="none" d="M 3 0 L 13 0 C 16 0 16 0 16 3 L 16 13 C 16 16 16 16 13 16 L 3 16 C 0 16 0 16 0 13 L 0 3 C 0 0 0 0 3 0"  stroke="black" stroke-opacity="0.049999999999999996" stroke-width="5" transform="translate(1, 1)"></path><path fill="none" d="M 3 0 L 13 0 C 16 0 16 0 16 3 L 16 13 C 16 16 16 16 13 16 L 3 16 C 0 16 0 16 0 13 L 0 3 C 0 0 0 0 3 0"  stroke="black" stroke-opacity="0.09999999999999999" stroke-width="3" transform="translate(1, 1)"></path><path fill="none" d="M 3 0 L 13 0 C 16 0 16 0 16 3 L 16 13 C 16 16 16 16 13 16 L 3 16 C 0 16 0 16 0 13 L 0 3 C 0 0 0 0 3 0"  stroke="black" stroke-opacity="0.15" stroke-width="1" transform="translate(1, 1)"></path><path fill="rgb(249, 249, 249)" fill-opacity=" .85" d="M 3 0 L 13 0 C 16 0 16 0 16 3 L 16 13 C 16 16 16 16 13 16 L 3 16 C 0 16 0 16 0 13 L 0 3 C 0 0 0 0 3 0"></path><text x="8"  style="font-size:12px;color:#333333;fill:#333333;" transform="translate(0,20)"></text></g><text x="1030" text-anchor="end"  style="cursor:pointer;color:#909090;font-size:9px;fill:#909090;" y="405">tylervigen.com</text></svg>