<?xml version="1.0" encoding="utf-8"?>
<!-- Generator: Adobe Illustrator 22.0.1, SVG Export Plug-In . SVG Version: 6.00 Build 0)  -->
<svg version="1.1" id="レイヤー_1" xmlns="http://www.w3.org/2000/svg" xmlns:xlink="http://www.w3.org/1999/xlink" x="0px"
	 y="0px" viewBox="0 0 1037.9 228" style="enable-background:new 0 0 1037.9 228;" xml:space="preserve">
<style type="text/css">
	.st0{fill:#CE3429;}
	.st1{fill:#262120;}
	.st2{fill:none;stroke:#1F1F1F;stroke-width:2.126;}
	.st3{fill:#1F1F1F;}
</style>
<g>
	<path class="st0" d="M71.6,25.8h20.1c0.7,0,1,0.7,0.7,1.3L80.2,45.1c-0.1,0.1-0.1,0.3-0.1,0.5v101.7c0,0.5-0.4,0.8-0.8,0.8H62.5
		c-0.5,0-0.8-0.4-0.8-0.8v-77c0-0.8-1-1.1-1.5-0.5l-4.8,7c-0.5,0.7-1.5,0.3-1.5-0.5V49.4c0-0.2,0.1-0.3,0.2-0.5l16.9-22.8
		C71.1,25.9,71.3,25.8,71.6,25.8z M170.9,144.8c0.2,0.5-0.2,1.1-0.8,1.1h-22.9h0.4H90c-0.6,0-1-0.5-0.8-1.1l18.8-57
		c0.2-0.5-0.2-1.1-0.8-1.1H87.6c-0.5,0-0.8-0.4-0.8-0.8v-18c0-0.5,0.4-0.8,0.8-0.8h79c0.5,0,0.8,0.4,0.8,0.8v18
		c0,0.5-0.4,0.8-0.8,0.8l-34.2,0c-0.4,0-0.7,0.2-0.8,0.5c-4.6,13.6-12.2,35.3-14,40.4c-0.2,0.5,0.2,1.1,0.8,1.1h21.9
		c0.6,0,0.9-0.5,0.8-1.1l-5.9-18.5c-0.2-0.5,0.2-1.1,0.8-1.1h21c0.3,0,0.7,0.2,0.8,0.5L170.9,144.8z M160.2,29.7v17.8
		c0,0.5-0.4,0.8-0.8,0.8H95.7c-0.5,0-0.8-0.4-0.8-0.8V29.7c0-0.5,0.4-0.8,0.8-0.8h63.7C159.9,28.9,160.2,29.2,160.2,29.7z"/>
	<path class="st1" d="M233.3,144.8l0-34.3c0-1.6-2-2.3-3-1c-2.9,3.9-5.6,7.5-8.2,10.9c-3.4,4.5-6.1,8-8,10.6l0,0c-1,1.3-3,0.6-3-1
		l0-27.8c0-0.4,0.1-0.8,0.4-1.1c0.8-1,2.9-3.4,6.1-7.5c4.1-5,9.1-11,15.2-18.1c0.3-0.3,0.4-0.7,0.4-1.1v-5c0-0.9-0.7-1.7-1.7-1.7
		h-18.9c-0.9,0-1.7-0.7-1.7-1.7V47.3c0-0.9,0.7-1.7,1.7-1.7h18.9c0.9,0,1.7-0.7,1.7-1.7V23.9c0-0.9,0.7-1.7,1.7-1.7h18.1
		c0.9,0,1.7,0.7,1.7,1.7l0,30.1c0,1.5,1.8,2.2,2.8,1.1c2.3-2.3,4.8-4.2,7.6-5.9c4-2.4,8.2-3.8,12.5-4.4c0.1,0,0.1,0,0.2,0
		c7-0.5,12.9,0.8,17.7,3.7c4.8,2.9,8.5,7,10.9,12c2.5,5.1,4.2,10.5,5.1,16.2c0.9,5.7,1.4,11.1,1.4,16.2c-0.1,8.9-1.9,17-5.4,24.2
		c-3.5,7.2-8.8,13-16,17.4c-6.8,4.1-14.9,6.3-24.2,6.5c-0.9,0-1.7-0.7-1.7-1.7l0-19.5c0-0.9,0.7-1.7,1.6-1.7c5.3,0,9.8-1,13.4-3.2
		c3.9-2.4,6.6-5.5,8.1-9.5c1.5-4,2.2-8.4,2.2-13.2c0-5.1-0.5-9.7-1.4-13.6c-0.9-4-2.4-6.9-4.6-8.8c-2.1-1.9-5.4-2.4-10-1.5
		c-0.1,0-0.2,0-0.3,0.1c-2.8,0.9-6.1,2.8-10,5.8c-3.9,2.9-7.2,6.7-9.9,11.5c-0.1,0.3-0.2,0.6-0.2,0.8v56.6c0,0.9-0.7,1.7-1.7,1.7
		L233.3,144.8L233.3,144.8z"/>
	<path class="st1" d="M362.6,28.9h66.7c1,0,1.7,0.8,1.7,1.7v17.7c0,0.6-0.3,1.1-0.7,1.4l-19.6,14.4c-1.4,1-0.6,3.2,1.1,3.1
		c5.9-0.4,10.9,0.3,15.2,2.3c5.7,2.7,10.2,6.8,13.4,12.5c3.2,5.7,4.9,12.4,5.1,20c0.1,8.2-1.8,15.4-5.7,21.5
		c-3.9,6.1-9,10.7-15.2,13.8s-12.9,4.9-20,5.7c-7.1,0.8-14,0.2-20.8-1.7c-5.7-1.6-10.1-4.3-13.1-8c-3-3.7-4.6-8.4-4.7-14.1
		c-0.1-3.6,0.7-7.4,2.5-11.4c1.8-4.1,4.8-7.1,8.9-9.3c4.2-2.1,9.8-2.7,17-1.6c6.3,1.2,11.3,3.5,15.1,7.1c3.2,3,5.8,6.7,7.9,10.9
		c0.6,1.2,2.2,1.3,2.9,0.3c1.2-1.5,2.1-3.2,2.6-5c0.9-2.6,1.3-5.5,1.2-8.5c0-5-1.7-8.9-5.1-11.7c-3.4-2.8-9.1-4-16.9-3.8
		c-7.6,0.3-13.9,1.6-18.9,4c-5,2.4-9.5,5.3-13.5,8.8l-14.3,11.8c-1.1,0.9-2.8,0.1-2.8-1.3v-23c0-0.5,0.3-1.1,0.7-1.4l40.4-30.6
		c1.3-1,0.6-3.1-1-3.1h-28.2c-1,0-1.7-0.8-1.7-1.7L362.6,28.9L362.6,28.9z M390.6,111.2c-0.1,0-0.2,0-0.3,0
		c-2.7-0.1-4.6,0.8-5.6,2.6c-1.1,1.8-1.1,3.8-0.1,6c1,2.2,3.1,3.8,6.3,4.8c0.1,0,0.1,0,0.2,0.1c3.3,0.9,6.2,1.1,8.7,0.8
		c0.8-0.1,1.5-0.2,2-0.3c1-0.1,1.7-1.1,1.5-2.1c-0.7-2.7-2.1-5.1-4.2-7.3C396.4,113.3,393.6,111.7,390.6,111.2z"/>
	<path class="st1" d="M485.1,87.3V66.8c0-0.9,0.8-1.7,1.7-1.7h91c0.9,0,1.7,0.8,1.7,1.7v18.7c0,0.9-0.8,1.7-1.7,1.7H551
		c-0.9,0-1.6,0.7-1.7,1.6c-0.9,9.6-3.3,17.7-7.3,24.2c-4.2,6.9-9.3,12.3-15.4,16.2c-6.1,4-12,6.9-17.7,8.7c-5.6,1.8-10.3,3-14.1,3.5
		c-1.6,0.2-2.9,0.4-3.8,0.5c-1,0.1-1.9-0.7-1.9-1.7v-19.9c0-0.9,0.6-1.6,1.5-1.7c0.9-0.1,2.3-0.3,4-0.6c3.6-0.5,7.8-1.8,12.7-3.8
		c4.9-2,9-5.1,12.5-9.4c3.1-3.9,5.1-9.2,5.9-15.8c0.1-1-0.7-1.9-1.7-1.9L485.1,87.3L485.1,87.3z M489.2,48.2V29.4
		c0-0.9,0.8-1.7,1.7-1.7H549c0.9,0,1.7,0.8,1.7,1.7v18.7c0,0.9-0.8,1.7-1.7,1.7h-58.2C489.9,49.9,489.2,49.1,489.2,48.2z
		 M556.3,48.6V29.4c0-0.9,0.8-1.7,1.7-1.7h5.8c0.9,0,1.7,0.8,1.7,1.7v19.2c0,0.9-0.8,1.7-1.7,1.7H558
		C557,50.3,556.3,49.5,556.3,48.6z M570.7,48.6V29.4c0-0.9,0.8-1.7,1.7-1.7h5.8c0.9,0,1.7,0.8,1.7,1.7v19.2c0,0.9-0.8,1.7-1.7,1.7
		h-5.8C571.5,50.3,570.7,49.5,570.7,48.6z"/>
	<path class="st1" d="M633.6,97.6V69.1c0-1-0.8-1.9-1.9-1.9h-11c-1,0-1.9-0.8-1.9-1.9V46c0-1,0.8-1.9,1.9-1.9h11
		c1,0,1.9-0.8,1.9-1.9V25.7c0-1,0.8-1.9,1.9-1.9h18.1c1,0,1.9,0.8,1.9,1.9v16.5c0,1,0.8,1.9,1.9,1.9h23.9c1,0,1.9-0.8,1.9-1.9V25.1
		c0-1,0.8-1.9,1.9-1.9h18.1c1,0,1.9,0.8,1.9,1.9v17.1c0,1,0.8,1.9,1.9,1.9h11.7c1,0,1.9,0.8,1.9,1.9v19.4c0,1-0.8,1.9-1.9,1.9h-11.7
		c-1,0-1.9,0.8-1.9,1.9v18.4c-0.2,10.1-2.3,18.6-6.4,25.4c-4.1,6.8-9.3,12.3-15.6,16.4c-6.4,4.1-12.6,7.2-18.6,9.2
		c-6,2-11.1,3.4-15.2,4.1c-1.7,0.3-3.1,0.5-4.1,0.7c-1.1,0.2-2.2-0.7-2.2-1.9v-19.6c0-0.9,0.7-1.7,1.6-1.9c0.7-0.1,1.6-0.2,2.7-0.4
		c2.8-0.4,6.2-1.2,10.3-2.4c4.1-1.2,8-3,11.7-5.4c3.7-2.4,6.9-5.6,9.7-9.6c2.8-4,4.2-8.8,4.3-14.6V69.1c0-1-0.8-1.9-1.9-1.9h-23.9
		c-1,0-1.9,0.8-1.9,1.9v28.4c0,1-0.8,1.9-1.9,1.9h-18.1C634.4,99.4,633.6,98.6,633.6,97.6z M710.8,36.8V19.7c0-1,0.8-1.9,1.9-1.9
		h6.2c1,0,1.9,0.8,1.9,1.9v17.1c0,1-0.8,1.9-1.9,1.9l-6.2,0C711.6,38.7,710.8,37.9,710.8,36.8z M726.5,36.8V19.7
		c0-1,0.8-1.9,1.9-1.9h6.2c1,0,1.9,0.8,1.9,1.9v17.1c0,1-0.8,1.9-1.9,1.9l-6.2,0C727.3,38.7,726.5,37.9,726.5,36.8z"/>
	<path class="st1" d="M850.7,25.5c-4.1,8.4-9,16.3-14.9,23.8c-5.7,7.2-10.8,13.5-15.6,18.9c-0.3,0.3-0.5,0.8-0.5,1.2v73.7
		c0,1-0.8,1.8-1.8,1.8h-19.2c-1,0-1.8-0.8-1.8-1.8V90.2c0-1.5-1.8-2.4-3-1.5c-6.4,4.9-12.5,8.9-18.5,12c-6.9,3.6-12.3,6.1-16.4,7.5
		c-1.6,0.5-2.8,1-3.8,1.3c-1.2,0.4-2.4-0.5-2.4-1.8V88.2c0-0.8,0.5-1.4,1.2-1.7c1.2-0.5,3.3-1.3,6.2-2.5c4.8-2,11-5.3,18.5-9.9
		c7.5-4.6,15.3-10.9,23.4-18.8c7.9-7.8,15.2-17.4,21.9-28.9c0.3-0.6,0.9-0.9,1.6-0.9L850.7,25.5L850.7,25.5z"/>
	<path class="st1" d="M887.7,49.6V31.6c0-1.3,1-2.3,2.3-2.3h40.5c1.3,0,2.3,1,2.3,2.3v17.9c0,1.3-1,2.3-2.3,2.3h-40.5
		C888.8,51.9,887.7,50.9,887.7,49.6z M984.1,53.6c-4.8,17.7-11.3,32.1-19.4,43.2c-8.1,11.1-16.5,19.7-25.3,25.7
		c-8.7,6-17,10.3-24.8,12.8c-7.8,2.5-14.2,4-19.2,4.4c-2.2,0.2-3.9,0.3-5.1,0.4c-1.3,0.1-2.5-1-2.5-2.3V119c0-1.2,1-2.3,2.2-2.3
		c0.9,0,2.2-0.1,3.7-0.2c3.9-0.2,8.8-1.2,14.9-3c6-1.7,12.4-5.1,19.1-10c6.7-4.9,12.8-11.2,18.5-18.8c5.4-7.3,10.2-17.1,14.5-29.5
		c0.3-0.9,1.2-1.6,2.2-1.6L984.1,53.6L984.1,53.6z"/>
</g>
<line class="st2" x1="24.9" y1="166.2" x2="1014.4" y2="166.2"/>
<g>
	<path class="st3" d="M144.7,195.8c1.9,0,2.9,1,2.9,2.9v14.6c0,1.9-0.9,2.9-2.9,2.9h-5.4c-2,0-2.9-0.9-2.9-2.9v-9.6
		c-0.9,1.4-1.4,1.8-2.2,1.8c-1.1,0-1.9-0.9-1.9-1.9c0-0.6,0-0.7,1.1-2.3c2.3-3.7,4.4-8.9,5.5-13.8h-4.2c-0.9,0-1.5-0.8-1.5-2
		c0-1.1,0.6-2,1.5-2H147c0.9,0,1.6,0.8,1.6,2c0,1.2-0.6,2-1.6,2h-4.5l0,0.2c-0.7,3-1.4,5.2-2.5,8.2H144.7z M143.2,212.6
		c0.5,0,0.8-0.2,0.8-0.7v-11.7c0-0.5-0.3-0.7-0.7-0.7h-2.7c-0.5,0-0.7,0.2-0.7,0.7v11.7c0,0.5,0.2,0.7,0.7,0.7H143.2z M165.3,196.7
		h2.9c0.9,0,1.5,0.8,1.5,2s-0.6,2-1.5,2h-2.9v15.9c0,1-0.8,1.6-2,1.6s-2-0.7-2-1.6v-15.9h-4.7c-0.1,5.6-0.7,9-2.2,12.4
		c-0.6,1.5-1.6,3.2-2.4,4.3c-0.5,0.7-1.2,1.1-1.9,1.1c-1.1,0-2.1-1-2.1-2.1c0-0.6,0.1-0.9,0.8-1.9c2.6-3.9,3.6-7.6,3.8-13.8h-2.7
		c-0.9,0-1.6-0.8-1.6-2s0.6-2,1.6-2h2.7v-9.3h-1.9c-0.9,0-1.5-0.8-1.5-2c0-1.1,0.6-1.9,1.5-1.9h16.8c0.9,0,1.5,0.8,1.5,1.9
		c0,1.2-0.6,2-1.5,2h-2.2V196.7z M156.6,187.4v9.3h4.7v-9.3H156.6z"/>
	<path class="st3" d="M203.4,205.9c-0.7,3.3-2.5,6.2-5.1,8.4c-2.3,2-5.4,3.4-8.3,3.9c-0.4,0.1-0.7,0.1-0.9,0.1
		c-1.3,0-2.2-0.9-2.2-2.1c0-0.8,0.4-1.5,1.2-1.8c0.2-0.1,0.2-0.1,1.1-0.3c5.3-1.3,8.9-4.2,9.9-8.2h-8.9c-1,0-1.6-0.8-1.6-1.9
		s0.7-1.9,1.6-1.9h9.5l0.2-3.1c0.1-1.1,0.9-1.7,2.1-1.7c1.3,0,2.3,0.7,2.2,1.6v0.1l-0.3,3.1h6.5c2.2,0,3.4,1.1,3.4,3.1v0.4l-0.5,7.1
		c-0.1,1,0.3,1.3,2,1.3c1.9,0,2.7-0.2,3-0.6c0.3-0.4,0.4-0.9,0.5-3.4c0-1.4,0.7-2,2-2c1.3,0,2,0.7,2,2.2c0,3.2-0.5,5.6-1.3,6.5
		c-0.9,0.9-2.3,1.2-6.4,1.2c-4.7,0-5.9-0.6-5.9-3.1c0-0.2,0-0.4,0-0.7l0.5-7.2v-0.1c0-0.4-0.3-0.7-0.7-0.7H203.4z M192.5,188.9
		c-0.6,0-0.9,0.3-0.9,0.9v2.5c0,0.9-0.8,1.5-2,1.5c-1.2,0-2-0.6-2-1.5v-3.5c0-2.2,1.1-3.3,3.3-3.3h11.8v-2.8c0-0.9,0.9-1.5,2.2-1.5
		c1.2,0,2.1,0.6,2.1,1.5v2.8H219c2.1,0,3.3,1.1,3.3,3.3v2.4c0,0.9-0.7,1.5-2,1.5c-1.3,0-2.1-0.5-2.1-1.4v-1.5c0-0.6-0.4-0.9-0.9-0.9
		H210v5.1c0,1,0.4,1.2,2.5,1.2c1.5,0,3.1-0.1,3.5-0.3c0.4-0.2,0.5-0.5,0.6-1.2c0-0.7,0.7-1.2,1.7-1.2c1.3,0,2,0.6,2,1.8
		c0,2-0.5,3.2-1.6,3.7c-0.9,0.4-2.7,0.6-6.4,0.6c-5.3,0-6.1-0.5-6.1-3.3v-6.3H192.5z M202.2,191.2c0,1.3-2.2,4.3-4.3,5.9
		c-2.1,1.6-5.9,3.1-7.6,3.1c-1.1,0-1.9-0.7-1.9-1.9c0-0.7,0.3-1.3,0.8-1.6c0.3-0.2,0.3-0.2,1.1-0.4c4.2-1.1,6.1-2.4,8.3-5.8
		c0.5-0.7,0.9-1,1.5-1C201.3,189.6,202.2,190.4,202.2,191.2z"/>
	<path class="st3" d="M258.4,182.6c1.9,0,2.6,0.4,3.8,2.3c0.6,0.9,1.2,1.6,1.9,2.4c1.3-1.2,3.1-2.9,4-3.9c0.5-0.6,1-0.9,1.6-0.9
		c0.9,0,1.8,0.8,1.8,1.7c0,0.6-0.3,1.1-0.9,1.7c-1.1,1-2.7,2.5-4.3,3.7c0.6,0.6,1.4,1.3,2,1.8c1.5-1.2,3.4-3,4.4-4.1
		c0.5-0.5,1-0.8,1.6-0.8c1,0,1.8,0.8,1.8,1.8c0,0.6-0.2,1.1-0.9,1.7c-1.3,1.1-2.7,2.2-4,3.3c1.6,0.9,3,1.6,4.5,2.2
		c1.1,0.4,1.5,0.9,1.5,1.8c0,1.2-0.8,2.2-1.9,2.2c-1.1,0-3.8-1.2-6.4-3c-0.2,0.8-0.7,1.3-1.4,1.3h-2v4.9h8.8c0.9,0,1.5,0.8,1.5,1.9
		c0,1.1-0.6,1.8-1.5,1.8h-8.8v6.3c0,1.1,0.3,1.2,3.3,1.2c2,0,2.7-0.2,3-0.9c0.2-0.5,0.4-1.8,0.5-2.6c0-1.1,0.7-1.8,1.9-1.8
		c1.4,0,2.1,0.7,2.1,2.2c0,2.4-0.6,4.7-1.6,5.6c-0.9,0.9-2.6,1.2-6.6,1.2c-3.5,0-4.6-0.2-5.4-0.7c-0.9-0.6-1.2-1.5-1.2-3.3v-7.3h-6
		c-0.5,3.9-2.6,7.1-6,9.3c-2.1,1.4-5.1,2.6-6.5,2.6c-1.2,0-2.1-0.9-2.1-2.2c0-0.7,0.4-1.4,1-1.8c0.2-0.1,0.2-0.1,1.1-0.4
		c4.9-1.4,7.6-3.8,8.3-7.6h-8.1c-0.9,0-1.5-0.8-1.5-1.9s0.6-1.9,1.5-1.9h8.3v-4.9h-1.7c-0.6,0-1.1-0.4-1.3-1
		c-2.8,1.8-5.6,3.2-6.6,3.2s-1.9-1-1.9-2.1c0-1,0.4-1.4,2-2c1.5-0.6,3.7-1.8,5.7-3.1l-0.4-0.3c-0.9-0.8-1.4-1.1-4.2-3.4
		c-0.6-0.5-0.9-0.9-0.9-1.6c0-0.9,0.9-1.8,1.8-1.8c0.5,0,0.9,0.2,1.6,0.8c1.6,1.3,3.5,3,4.7,4.2c2-1.6,3.2-2.9,4.4-4.5h-7.1
		c-0.9,0-1.6-0.7-1.6-1.8c0-1.1,0.6-1.8,1.6-1.8H258.4z M266,194.2c-2.9-2.4-5.3-4.9-7.1-7.6c-1.8,2.8-4.2,5.5-6.8,7.6H266z
		 M255.7,197.8v4.9h5.9v-4.9H255.7z"/>
	<path class="st3" d="M317.5,200.5c0.7,2.2,1.7,4.2,2.9,5.9c2.3-1.6,4.3-3.1,6-4.5c0.6-0.5,1.2-0.7,1.8-0.7c1.1,0,2,0.9,2,2
		c0,0.6-0.4,1.2-1,1.7c-1.6,1.2-4.3,2.9-6.5,4.2c2,1.8,4.4,3.4,7.4,4.6c1.2,0.5,1.7,1.1,1.7,2c0,1.3-1,2.3-2.2,2.3
		c-1.5,0-5.8-2.5-8.5-4.9c-3.5-3.2-5.9-7.3-7.5-12.5c-1.5,1.6-3.1,2.9-4.9,4.2v8.2c1.3-0.3,4.1-1,5.4-1.4c1.3-0.4,1.6-0.4,2-0.4
		c1.1,0,1.9,0.8,1.9,2c0,1-0.5,1.4-2.1,1.9c-4.2,1.3-13.2,3.2-14.9,3.2c-1.2,0-2-0.9-2-2.2c0-0.7,0.3-1.2,0.9-1.5
		c0.4-0.2,0.4-0.2,1.9-0.4c0.9-0.2,1.5-0.3,2.7-0.5v-6.4c-3.4,2-6.9,3.5-8.1,3.5c-1.1,0-1.9-0.9-1.9-2.1c0-0.7,0.4-1.3,1-1.6
		c0.2-0.1,0.2-0.1,1.5-0.6c4.4-1.6,8.1-3.6,11.5-6.1h-11.9c-0.9,0-1.5-0.7-1.5-1.7c0-1,0.6-1.7,1.5-1.7h14.7v-3h-11.7
		c-0.9,0-1.4-0.6-1.4-1.6c0-0.9,0.6-1.6,1.4-1.6h11.7v-2.9h-13.6c-0.8,0-1.4-0.7-1.4-1.6c0-1,0.6-1.6,1.4-1.6h13.6v-2.2
		c0-0.9,0.9-1.5,2.1-1.5c1.3,0,2.1,0.6,2.1,1.5v2.2h13.7c0.8,0,1.4,0.7,1.4,1.7c0,0.9-0.6,1.6-1.4,1.6h-13.7v2.9h11.8
		c0.8,0,1.4,0.6,1.4,1.6c0,1-0.5,1.6-1.4,1.6h-11.8v3h14.9c0.8,0,1.5,0.7,1.5,1.7c0,1-0.6,1.7-1.5,1.7H317.5z"/>
	<path class="st3" d="M365.2,208.6c-2.1,3.9-4.4,5.8-7.1,5.8c-4.5,0-7.9-5.3-7.9-12.2c0-6.5,3.1-12.2,8.6-15.6
		c2.9-1.8,6.3-2.7,10-2.7c9.9,0,16.7,6.5,16.7,15.9c0,4.8-1.6,8.9-4.4,11.7c-2.2,2.1-4.7,3.6-7.7,4.5c-0.8,0.3-1.3,0.4-1.7,0.4
		c-1.2,0-2.1-0.9-2.1-2.2c0-0.7,0.4-1.4,1-1.7c0.2-0.1,0.3-0.1,0.9-0.3c6.6-2.3,9.6-6,9.6-12.4c0-4.8-2.2-8.9-5.7-10.7
		c-1.3-0.7-2.6-1.1-4.3-1.4C370,196.3,368.1,203,365.2,208.6z M366.9,187.5c-7.3,0.7-12.5,6.9-12.5,14.8c0,4.2,1.8,7.6,3.8,7.6
		c1.2,0,2.3-1.2,3.8-4.2c2.4-4.9,4-10.8,4.9-17.5L366.9,187.5z"/>
	<path class="st3" d="M435.4,210.1c0.9,0,1.6,0.8,1.6,2s-0.7,2-1.6,2H404c-0.9,0-1.6-0.8-1.6-2c0-1.1,0.7-1.9,1.6-1.9h19.1
		c0.9-6.3,2.2-17.4,2.2-19c0-0.7-0.4-1-1.3-1h-15.5c-0.9,0-1.7-0.9-1.7-2s0.7-1.9,1.7-1.9h17.6c2.3,0,3.7,1.3,3.7,3.5
		c0,2.1-1.1,11.6-2.2,20.3H435.4z"/>
	<path class="st3" d="M489.4,209.4c1,0,1.7,0.9,1.7,2.1c0,1.2-0.7,2-1.7,2h-31.8c-1,0-1.7-0.8-1.7-2c0-1.2,0.7-2,1.7-2H489.4z
		 M485.4,187.2c1,0,1.7,0.9,1.7,2.1c0,1.2-0.7,2-1.7,2h-24c-1,0-1.7-0.9-1.7-2s0.7-2,1.7-2H485.4z"/>
	<path class="st3" d="M522.7,187.2c0,1.2-1.6,8.9-2.6,12.7c-1.6,5.6-3.4,10.3-5.3,13.5c-0.8,1.3-1.4,1.7-2.4,1.7
		c-1.3,0-2.4-1.1-2.4-2.3c0-0.5,0.2-0.9,0.5-1.5c3.5-5.3,6.6-14.9,7.7-24c0.2-1.5,0.9-2.2,2.3-2.2
		C521.8,185.1,522.7,185.9,522.7,187.2z M533.6,185.8c0.2,0.3,0.2,0.3,0.9,3.6c1.8,7.2,5.6,17.1,8.2,21.7c0.4,0.7,0.5,1.1,0.5,1.6
		c0,1.3-1.1,2.3-2.4,2.3c-1.1,0-1.6-0.4-2.4-1.8c-3.1-5.7-6.4-14.7-8.2-22.4c-0.5-2.2-0.8-3.7-0.8-4.1c0-1.1,0.9-2,2.2-2
		C532.6,184.8,533.3,185.1,533.6,185.8z M540,184.8c1.1,1.8,1.7,3.3,1.7,4c0,0.7-0.6,1.3-1.3,1.3c-0.7,0-0.9-0.3-1.4-1.3
		c-0.5-1.1-1.3-2.6-2.1-4c-0.3-0.5-0.3-0.6-0.3-0.9c0-0.7,0.6-1.3,1.4-1.3S538.9,182.8,540,184.8z M544.5,182.3
		c1,1.8,1.8,3.6,1.8,4.3c0,0.7-0.6,1.3-1.3,1.3c-0.7,0-1-0.3-1.4-1.3c-0.4-1.1-1.1-2.4-2.1-4c-0.2-0.4-0.3-0.7-0.3-0.9
		c0-0.7,0.7-1.3,1.4-1.3C543.2,180.4,543.6,180.7,544.5,182.3z"/>
	<path class="st3" d="M592.6,197c1,0,1.8,0.9,1.8,2.1c0,1.2-0.7,2-1.8,2H562c-1,0-1.7-0.9-1.7-2.1s0.7-2.1,1.7-2.1H592.6z"/>
	<path class="st3" d="M634.4,183.7c0-1.1,0.9-1.8,2.2-1.8c1.3,0,2.2,0.7,2.2,1.8v6.4h6.7c0.9,0,1.6,0.8,1.6,1.9s-0.7,1.9-1.6,1.9
		h-6.7v1.1c0,7.5-1,12.1-3.5,15.6c-1.6,2.3-4.2,4.4-7,5.6c-1,0.5-1.5,0.6-2,0.6c-1.1,0-2-1-2-2.2c0-1.1,0.4-1.6,1.8-2.2
		c6.2-2.9,8.2-7.2,8.2-17.4V194h-11.4v9.6c0,1.1-0.9,1.8-2.2,1.8c-1.3,0-2.2-0.7-2.2-1.8V194h-6.2c-0.9,0-1.6-0.8-1.6-2
		c0-1.1,0.7-1.9,1.6-1.9h6.2V184c0-1.1,0.9-1.8,2.2-1.8c1.3,0,2.2,0.8,2.2,1.8v6.1h11.4V183.7z"/>
	<path class="st3" d="M673.5,191.1c0,8.2-0.4,11.6-1.6,15c-1.2,3.3-3.6,6.4-6.3,8.5c-0.8,0.6-1.3,0.8-1.8,0.8
		c-1.2,0-2.2-1.1-2.2-2.3c0-0.9,0.2-1.2,1.5-2.2c4.9-3.9,6.3-8.4,6.2-19.8v-5.8c0-1.1,0.9-1.8,2.2-1.8c1.3,0,2.2,0.7,2.2,1.8V191.1z
		 M683.5,209c0,0.6,0.1,0.9,0.3,0.9c0.4,0,1.6-0.8,2.8-1.8c3.5-2.9,6.1-6.8,7.4-11.1c0.3-0.9,0.9-1.3,1.8-1.3c1.3,0,2.2,0.9,2.2,2
		c0,0.7-0.6,2.6-1.5,4.5c-2.4,5.2-6.6,9.7-11.8,12.7c-0.9,0.5-1.7,0.7-2.5,0.7c-1.8,0-3.1-1.5-3.1-3.6v-27.6c0-1.1,0.9-1.8,2.1-1.8
		c1.3,0,2.2,0.8,2.2,1.8V209z"/>
	<path class="st3" d="M717.5,198.7c-0.9,0-1.6-0.8-1.6-1.9c0-1.1,0.7-1.9,1.6-1.9h31.8c0.9,0,1.6,0.8,1.6,1.9s-0.7,1.9-1.6,1.9
		h-12.9c-0.3,6.8-1.3,10.5-3.7,13.5c-1.9,2.4-6,4.9-7.8,4.9c-1.2,0-2-0.9-2-2.2c0-0.6,0.3-1.2,0.8-1.6c0.2-0.2,0.2-0.2,1-0.5
		c5.3-2.6,7-5.9,7.4-14H717.5z M741.6,184.5c0.9,0,1.6,0.8,1.6,1.9c0,1.1-0.7,1.8-1.6,1.8H722c-0.9,0-1.6-0.8-1.6-1.9
		s0.7-1.8,1.6-1.8H741.6z M747.3,184.3c0.9,1.7,1.5,3.2,1.5,3.8c0,0.7-0.6,1.2-1.5,1.2c-0.7,0-0.9-0.2-1.4-1.3
		c-0.6-1.6-1.3-3.1-2.1-4.6c-0.2-0.3-0.2-0.5-0.2-0.7c0-0.6,0.6-1.1,1.4-1.1C745.8,181.7,746.1,182.2,747.3,184.3z M751.3,181.3
		c1.7,3.3,2.3,4.7,2.3,5.3c0,0.7-0.6,1.3-1.5,1.3c-0.7,0-0.9-0.3-1.3-1.3c-0.4-1.1-1.3-2.9-2.1-4.4c-0.2-0.4-0.3-0.5-0.3-0.8
		c0-0.6,0.6-1.1,1.4-1.1C750.5,180.2,750.9,180.5,751.3,181.3z"/>
	<path class="st3" d="M792.2,184c0-1.1,0.9-1.8,2.2-1.8c1.3,0,2.2,0.7,2.2,1.8l0.1,6.8h7.4c0.9,0,1.6,0.8,1.6,1.9
		c0,1.1-0.7,1.9-1.6,1.9h-7.2c0,7.5-0.8,11.8-2.7,15.2c-1.6,3-4.4,5.4-7.7,6.8c-0.9,0.4-1.3,0.5-1.8,0.5c-1.1,0-2-1-2-2.2
		c0-1.1,0.4-1.5,1.9-2.2c6-2.9,8-7.2,8-18h-11.2v9.1c0,1.1-0.9,1.8-2.2,1.8c-1.3,0-2.2-0.7-2.2-1.8v-9.1h-6.2
		c-0.9,0-1.6-0.8-1.6-1.9c0-1.1,0.7-1.9,1.6-1.9h6.2v-6.4c0-1.1,0.9-1.9,2.3-1.9c1.3,0,2.2,0.8,2.2,1.9v6.4h11.1L792.2,184z
		 M800.7,183.9c1,1.8,1.8,3.6,1.8,4.2c0,0.7-0.6,1.3-1.5,1.3c-0.7,0-1-0.3-1.4-1.3c-0.6-1.5-1.2-2.9-2-4.3c-0.1-0.3-0.2-0.5-0.2-0.7
		c0-0.6,0.7-1.2,1.5-1.2C799.5,182,799.8,182.3,800.7,183.9z M805.1,182c1.2,2.2,2,3.9,2,4.5c0,0.7-0.6,1.3-1.5,1.3
		c-0.7,0-0.9-0.3-1.3-1.3c-0.6-1.5-0.7-1.8-2.1-4.3c-0.2-0.3-0.2-0.4-0.2-0.7c0-0.6,0.7-1.2,1.4-1.2
		C804.1,180.4,804.3,180.6,805.1,182z"/>
	<path class="st3" d="M841.7,215.2c0,1.1-0.9,1.8-2.2,1.8s-2.2-0.7-2.2-1.8V197c-4.5,2.9-11.8,6.3-13.4,6.3c-1.1,0-2-1-2-2.2
		c0-0.7,0.4-1.3,0.9-1.7c0.2-0.1,0.2-0.1,1.3-0.5c8.1-3,16.6-8.8,22.9-15.7c0.4-0.5,1.1-0.8,1.6-0.8c1.1,0,2.2,1.1,2.2,2.2
		c0,0.7-0.1,0.8-1.4,2.2c-1.9,2-4.9,4.7-7.7,7.1V215.2z"/>
	<path class="st3" d="M884.1,187.7c0.5,0.2,1.5,0.6,1.6,0.7c0.8,0.5,1.3,1.2,1.3,2c0,1.1-1,2.2-2.2,2.2c-0.4,0-0.4,0-1.5-0.4
		c-2.6-1.1-6.6-2.4-8.9-3c-1.1-0.3-1.6-0.9-1.6-2c0-1.3,0.8-2.1,2-2.1C876.1,185.1,880.9,186.4,884.1,187.7z M904,191.7
		c0,0.9-1.2,5.1-2.2,7.4c-2.6,6.2-6.3,10.3-11.9,12.9c-2.9,1.4-6.5,2.4-10.8,3.2c-1.4,0.2-3.3,0.5-3.5,0.5c-1.1,0-2-1-2-2.2
		c0-0.9,0.5-1.6,1.3-2c0.3-0.1,0.3-0.1,3.3-0.6c12.8-2.1,18.5-7.2,21.6-19.6c0.2-1.1,0.9-1.7,2-1.7C903.1,189.6,904,190.5,904,191.7
		z"/>
</g>
</svg>
