<?xml version="1.0" encoding="utf-8"?>
<!-- Generator: Adobe Illustrator 16.0.4, SVG Export Plug-In . SVG Version: 6.00 Build 0)  -->
<!DOCTYPE svg PUBLIC "-//W3C//DTD SVG 1.1//EN" "http://www.w3.org/Graphics/SVG/1.1/DTD/svg11.dtd">
<svg version="1.1" id="レイヤー_1" xmlns="http://www.w3.org/2000/svg" xmlns:xlink="http://www.w3.org/1999/xlink" x="0px"
	 y="0px" width="200px" height="57.141px" viewBox="0 0 200 57.141" enable-background="new 0 0 200 57.141" xml:space="preserve">
<path d="M32.572,17.063c-3.611,0-6.549,2.937-6.549,6.548c0,3.61,2.938,6.548,6.549,6.548c3.61,0,6.546-2.938,6.546-6.548
	C39.118,20,36.182,17.063,32.572,17.063 M32.571,27.544c-2.053,0-3.724-1.764-3.724-3.933c0-2.169,1.671-3.934,3.724-3.934
	c2.053,0,3.724,1.764,3.724,3.934C36.294,25.78,34.624,27.544,32.571,27.544 M54.667,40.057V26.962h2.622v5.236h1.674l3.707-5.238
	h3.212l-4.637,6.549l4.637,6.545h-3.212l-3.707-5.233h-1.674v5.233 M92.508,38.261h-9.46V25.166h9.46v2.621h-6.841v2.616h5.729
	v2.622h-5.729v2.616h6.841 M117.173,26.112l-5.281-8.17v8.168h-2.622V13.016h2.622l5.281,8.184v-8.184h2.621V26.11 M200,13.097
	h-5.499v-2.622h1.453V2.622h-1.453V0.001H200v2.621h-1.425v7.854H200 M141.783,13.772h-4.658v13.096h4.657
	c4.336,0,6.723-3.168,6.723-6.547C148.505,16.526,145.677,13.772,141.783,13.772 M141.917,24.639l-2.171-0.036v-8.565l2.16-0.036
	c2.434,0.209,3.885,1.823,3.885,4.319C145.791,22.819,144.336,24.435,141.917,24.639 M170.499,0h-2.62l-5.356,13.097h2.889
	l1.111-2.951h5.334l1.109,2.951h2.891 M167.493,7.525l1.501-4.029h0.389l1.502,4.029H167.493z M4.738,22.366
	c0.448,0.151,2.218,0.741,2.966,1.101c1.002,0.482,1.833,1.478,1.833,2.809c0,1.915-1.258,3.886-4.768,3.886
	c-1.756,0-2.773-0.41-3.568-1.205c-0.627-0.627-1.147-1.689-1.147-2.681h2.62c0.135,1.455,1.186,1.738,2.095,1.738
	c1.383,0,2.112-0.805,2.112-1.444c0-0.674-0.277-1.135-2.112-1.717c-0.902-0.314-2.215-0.75-2.936-1.092
	C0.829,23.284,0,22.282,0,20.951c0-1.915,1.259-3.886,4.769-3.886c1.756,0,2.773,0.411,3.568,1.205
	c0.627,0.627,1.147,1.69,1.147,2.681h-2.62c-0.136-1.455-1.186-1.738-2.095-1.738c-1.384,0-2.113,0.806-2.113,1.444
	C2.655,21.484,3.163,21.836,4.738,22.366 M60.092,57.141l-0.014-0.005l-27.525-9.591H4.673v-2.619l28.335,0.003l27.447,9.562
	l27.158-1.719l26.66-11.594h0.018l28.346,0.712l26.269-13.388h28.419v2.621h-27.79l-26.298,13.404l-0.019-0.001l-28.43-0.714
	L88.237,55.358l-0.013,0.001"/>
</svg>
