<svg id="レイヤー_1" data-name="レイヤー 1" xmlns="http://www.w3.org/2000/svg" viewBox="0 0 775.2138 380.9805"><defs><style>.cls-1,.cls-10,.cls-9{fill:none;}.cls-1,.cls-10{stroke:#e16659;}.cls-1,.cls-6,.cls-9{stroke-width:5px;}.cls-2{fill:#fff;}.cls-3{fill:#908d8a;}.cls-4{fill:#e16659;}.cls-5{fill:#ccc;}.cls-6,.cls-8{fill:#494645;}.cls-6,.cls-9{stroke:#fff;}.cls-7{fill:#595857;}.cls-10{stroke-linecap:round;stroke-width:4px;stroke-dasharray:0.99877 7.99018;}</style></defs><title>hajimeni</title><path class="cls-1" d="M241.1542,131.8858a96.52729,96.52729,0,1,1-136.5097,0,96.526,96.526,0,0,1,136.5097,0"/><rect class="cls-2" x="213.4404" y="115.2002" width="88.8047" height="164.0928"/><path class="cls-3" d="M281.25,211.4278c21.9882,33.9257,21.9882,88.9316,0,122.8593-21.9903,33.9258-57.6417,33.9258-79.6299,0-21.9903-33.9277-21.9903-88.9336,0-122.8593,21.9882-33.9278,57.6396-33.9278,79.6299,0"/><path class="cls-2" d="M199.9277,294.0938H311.2549a9.6523,9.6523,0,0,1,9.6523,9.6523v59.206a9.6514,9.6514,0,0,1-9.6514,9.6514H199.9276a9.6542,9.6542,0,0,1-9.6542-9.6542V303.7481A9.6543,9.6543,0,0,1,199.9277,294.0938Z"/><line class="cls-1" x1="218.5312" y1="115.335" x2="218.4179" y2="117.7862"/><polygon class="cls-4" points="209.47 120.362 230.556 128.054 224.058 106.566 209.47 120.362"/><path class="cls-5" d="M639.1484,151.5508a22.96385,22.96385,0,0,1,0,32.5938,23.25986,23.25986,0,0,1-32.7656,0,22.96725,22.96725,0,0,1,0-32.5938,23.25271,23.25271,0,0,1,32.7656,0"/><path class="cls-5" d="M650.7382,202.668c15.833,24.2988,15.833,63.6973,0,88.002-15.832,24.2988-41.5039,24.2988-57.3359,0-15.8291-24.3047-15.8291-63.7032,0-88.002,15.832-24.3027,41.5039-24.3027,57.3359,0"/><path class="cls-3" d="M650.7294,176.002a22.96256,22.96256,0,0,1,0,32.5957,23.25513,23.25513,0,0,1-32.7617,0,22.96614,22.96614,0,0,1,0-32.5957,23.25146,23.25146,0,0,1,32.7617,0"/><path class="cls-3" d="M662.3193,227.1172c15.8349,24.3028,15.8349,63.7031,0,88.0059-15.8291,24.3008-41.501,24.3008-57.3311,0-15.832-24.3028-15.832-63.7031,0-88.0059,15.8301-24.2988,41.502-24.2988,57.3311,0"/><path class="cls-3" d="M265.1503,140.0645a32.17576,32.17576,0,1,1-45.5029,0,32.17459,32.17459,0,0,1,45.5029,0"/><path class="cls-4" d="M171.6113,271.5723H311.2568a9.6504,9.6504,0,0,1,9.6504,9.6504v25.0986a9.6514,9.6514,0,0,1-9.6514,9.6514H171.6132a9.6543,9.6543,0,0,1-9.6543-9.6543V281.2247A9.6524,9.6524,0,0,1,171.6113,271.5723Z"/><path class="cls-6" d="M171.6113,271.5723H311.2568a9.6504,9.6504,0,0,1,9.6504,9.6504v25.0986a9.6514,9.6514,0,0,1-9.6514,9.6514H171.6132a9.6543,9.6543,0,0,1-9.6543-9.6543V281.2247A9.6524,9.6524,0,0,1,171.6113,271.5723Z"/><path class="cls-7" d="M592.8134,173.4297a22.96028,22.96028,0,0,1,0,32.5938,23.25146,23.25146,0,0,1-32.7617,0,22.96225,22.96225,0,0,1,0-32.5938,23.25146,23.25146,0,0,1,32.7617,0"/><path class="cls-7" d="M604.4052,224.5469c15.8321,24.2988,15.8321,63.6992,0,88-15.833,24.3027-41.5019,24.3027-57.3349,0-15.8301-24.3008-15.8301-63.7012,0-88,15.833-24.3027,41.5019-24.3027,57.3349,0"/><path class="cls-2" d="M534.5565,294.0938H674.1982a9.6514,9.6514,0,0,1,9.6514,9.6514v59.204a9.6543,9.6543,0,0,1-9.6543,9.6543H534.5565a9.6542,9.6542,0,0,1-9.6542-9.6542V303.748A9.6542,9.6542,0,0,1,534.5565,294.0938Z"/><path class="cls-8" d="M534.5537,271.5723H674.1992a9.6504,9.6504,0,0,1,9.6504,9.6504v25.0957a9.6543,9.6543,0,0,1-9.6543,9.6543H534.5566a9.6543,9.6543,0,0,1-9.6543-9.6543V281.2237A9.6514,9.6514,0,0,1,534.5537,271.5723Z"/><path class="cls-9" d="M534.5537,271.5723H674.1992a9.6504,9.6504,0,0,1,9.6504,9.6504v25.0957a9.6543,9.6543,0,0,1-9.6543,9.6543H534.5566a9.6543,9.6543,0,0,1-9.6543-9.6543V281.2237A9.6514,9.6514,0,0,1,534.5537,271.5723Z"/><path class="cls-2" d="M219.29829,292.97366v2.59864h4.89844v2.50586h-4.89844v2.48339c0,.82813.09277.96582.73633.96582h1.77051c.59765,0,.71289-.46.80468-2.62109a6.81318,6.81318,0,0,0,2.46094,1.08106c-.27637,3.03515-.98926,3.95507-3.01269,3.95507h-2.50684c-2.4834,0-3.10352-.80468-3.10352-3.35742v-2.50683h-3.03613c-.50586,2.415-2.02344,4.6914-6.27734,6.11718a10.42821,10.42821,0,0,0-1.74707-2.18457c3.17285-.96582,4.55273-2.3916,5.12793-3.93261h-4.55371V295.5723h4.92089v-2.59864h-1.93164v-.75879a18.78978,18.78978,0,0,1-3.05761,1.81641,11.876,11.876,0,0,0-1.65625-2.06933,14.22293,14.22293,0,0,0,3.81738-2.36817,24.45546,24.45546,0,0,0-2.27637-1.95508l1.72461-1.42578c.68946.4834,1.56348,1.14942,2.207,1.70215a12.89762,12.89762,0,0,0,1.44922-2.07031h-4.6914V283.5h6.00195l.48242-.09277,1.83984.85156a15.75554,15.75554,0,0,1-3.748,6.11621h8.32422a21.0336,21.0336,0,0,1-4.18457-7.03613l2.46-.69043a15.98668,15.98668,0,0,0,1.14941,2.46094,21.87359,21.87359,0,0,0,2.04688-2.13868l2.06933,1.47168c-.94238.85059-2,1.748-2.94336,2.4375.32227.41407.667.80469,1.03516,1.19532a22.15548,22.15548,0,0,0,2.57519-2.4834l2.001,1.42578a37.98865,37.98865,0,0,1-3.03516,2.4834,14.09723,14.09723,0,0,0,3.56348,2.09277,10.44912,10.44912,0,0,0-1.88574,2.36817,15.99627,15.99627,0,0,1-2.82813-1.72461v.73632Zm-2.85059,0h-2.8291v2.59864h2.8291Z"/><path class="cls-2" d="M250.27876,295.71a46.69245,46.69245,0,0,1-4.62207,2.85156,11.65414,11.65414,0,0,0,5.70215,3.127,10.83428,10.83428,0,0,0-1.77051,2.4375c-4.9668-1.51758-7.61133-4.75977-9.24414-9.65821a23.125,23.125,0,0,1-3.17285,2.11622v4.09277c1.793-.25293,3.72461-.52832,5.58789-.78223l.11426,2.3916c-3.58692.5752-7.47266,1.127-10.27832,1.51758l-.39063-2.50586c.667-.06933,1.42578-.16113,2.23047-.27636v-3.08106a30.98916,30.98916,0,0,1-3.26563,1.17285,16.05549,16.05549,0,0,0-1.748-2.2539,27.471,27.471,0,0,0,8.02539-3.31055H230.2729v-2.32324h8.73828v-1.24121h-6.59961v-2.18457h6.59961v-1.19629h-7.72656v-2.32227h7.72656V282.626h2.73633v1.65527h8.02441v2.32227h-8.02441v1.19629H248.853v2.18457h-7.10547v1.24121h8.80664v2.32324h-7.84082a15.98035,15.98035,0,0,0,1.54,3.28809,30.50584,30.50584,0,0,0,3.74805-2.80567Z"/><path class="cls-2" d="M267.7602,291.98441c-.89746.64453-1.77148,1.24218-2.71386,1.83984H273.394v10.21h-2.85156v-.59766h-7.91016v.68946H259.896v-7.51953c-1.15039.50586-2.34571,1.01172-3.51856,1.44922a15.03272,15.03272,0,0,0-1.67871-2.25391,40.85936,40.85936,0,0,0,8.55371-3.81738H255.434v-2.41407h7.38184v-2.09277h-5.4043v-2.36816h5.4043V282.626h2.71387v2.4834H270.519v1.12695a28.05813,28.05813,0,0,0,2.36914-2.9209l2.34473,1.19629a33.69342,33.69342,0,0,1-4.5293,5.05859h5.334v2.41407Zm2.78223,4.07031h-7.91016v1.47168h7.91016Zm0,5.10547v-1.56446h-7.91016v1.56446Zm-5.01269-11.58985h1.26464a31.535,31.535,0,0,0,2.4834-2.09277h-3.748Z"/><path class="cls-2" d="M590.12837,301.89554a10.84308,10.84308,0,0,0,1.54-4.3916l2.16211.666a11.70986,11.70986,0,0,1-1.74805,5.05957l-1.9541-1.10351v2h-2.3916v-3.51856c-1.93164.25293-3.83985.4375-5.4502.6211l-.29883-2.55176,1.49512-.11524V286.19046h-.98926v-2.46094h8.62305v2.46094h-.98828Zm-4.32324-15.70508v2.41406h1.93164v-2.41406Zm0,7.082h1.93164V290.835h-1.93164Zm1.93164,4.89746v-2.667h-1.93164v2.85156Zm14.0498,5.05957a12.48335,12.48335,0,0,0-.78222-2.32226c-.25293,2.4375-.89649,3.05761-2.39063,3.05761h-1.95508c-2.11523,0-2.55273-.71289-2.55273-2.85156v-3.70215h2.208a15.70975,15.70975,0,0,0-1.541-1.08007l1.19629-.98926h-4.59961v-6.668h4.55371V287.087h-4.69141v-2.29981h4.69141V282.8555h2.62109v1.93164h4.78321V287.087h-4.78321v1.58691h4.64454v6.668H597.1186a11.456,11.456,0,0,1,2.71289,2.18457l-1.72461,1.58691a11.35587,11.35587,0,0,0-1.58593-1.541v3.51855c0,.55176.06836.64356.52832.64356h1.26465c.41406,0,.52929-.2295.57519-1.95411a6.356,6.356,0,0,0,2.001.874,15.377,15.377,0,0,0-1.37989-2.415l2.09278-.98828a15.39989,15.39989,0,0,1,2.46,4.9209Zm-6.99023-12.50976h-1.24219v2.57617h1.24219Zm3.05761,0h-1.31054v2.57617H597.854Zm1.72461,2.57617h1.334v-2.57617h-1.334Z"/><path class="cls-2" d="M615.934,298.46976a24.56551,24.56551,0,0,1-6.48437,5.26562,18.10347,18.10347,0,0,0-2.18457-1.95508,17.10153,17.10153,0,0,0,6.001-4.36914Zm-.62109-5.3584a27.75117,27.75117,0,0,1-5.84082,4.13965,22.61915,22.61915,0,0,0-2.04688-1.86328,19.351,19.351,0,0,0,5.4043-3.334Zm12.80859,1.90918a46.83364,46.83364,0,0,1-4.76074,3.31055,13.49689,13.49689,0,0,0,5.38086,2.98925,12.76234,12.76234,0,0,0-1.8623,2.415,14.15226,14.15226,0,0,1-7.4043-6.30078v6.71485h-2.69043v-7.61133c-.80469.39062-1.58692.71289-2.29981,1.01172a22.20022,22.20022,0,0,0-1.793-2.13868,32.83458,32.83458,0,0,0,7.65722-3.44921H607.83931v-2.4834h2.50683v-4.80664h5.56446a19.08031,19.08031,0,0,0,.59765-2.0459l3.24317.16113a16.47163,16.47163,0,0,1-.80567,1.88477h7.42774v4.80664h2.27636v2.4834h-7.19726l1.70117.85058a26.34683,26.34683,0,0,1-2.5752,1.70215,12.064,12.064,0,0,0,1.31055,2.16113,29.2118,29.2118,0,0,0,4.02441-3.19629Zm-15.22265-5.542h2.04589v-2.50684h-2.04589Zm6.43847-2.50684h-2.11621v2.50684h2.11621Zm2.27637,0v2.50684h2.09277v-2.50684Z"/><polyline class="cls-1" points="478.371 193.705 475.798 193.705 341.794 193.705"/><polygon class="cls-4" points="475.798 203.746 495.875 193.705 475.798 183.664 475.798 203.746"/><polyline class="cls-1" points="356.429 234.889 359.003 234.889 491.025 234.889"/><polygon class="cls-4" points="359.003 224.853 338.926 234.889 359.003 244.93 359.003 224.853"/><path class="cls-4" d="M383.01118,155.75589a43.7675,43.7675,0,0,1-2.51367,5.21582v18.916h-3.05274V165.62015a26.49213,26.49213,0,0,1-2.24316,2.54,20.7791,20.7791,0,0,0-1.67578-3.26953,28.74809,28.74809,0,0,0,6.51269-10.10743Zm13.51172,24.21289a12.74843,12.74843,0,0,0-.70313-2.18848c-4.83691.459-9.94433.94629-13.59277,1.21582l-.56738-3.21582c.78418-.05371,1.67578-.10742,2.62109-.1621a57.16637,57.16637,0,0,0,2.48633-7.97168h-4.918v-3.10743h17.48438v3.10743h-8.86426c-.83692,2.59472-1.86426,5.43164-2.83692,7.72851,2.18848-.16211,4.54-.35058,6.86329-.54a38.724,38.724,0,0,0-2.13477-3.75683l2.83789-1.18848a32.88066,32.88066,0,0,1,4.459,8.70117Zm1.43164-20.32129H383.82173v-3.08008h14.13281Z"/><path class="cls-4" d="M414.47114,160.99905c-.35156.459-.91894,1.32422-1.37793,2.02637-.02734.27051-.02734.51367-.05469.78418a13.053,13.053,0,0,1,7.86426-2.78418,7.07072,7.07072,0,0,1,7.377,7.21582c0,5.4043-3.37793,8.64746-10.02539,9.97168l-1.59473-3.24316c4.70215-.72949,8.05371-2.6211,8.05371-6.80957a4.07752,4.07752,0,0,0-4.35156-3.97266,11.20526,11.20526,0,0,0-7.59278,3.43164c-.02734.75684-.05468,1.51367-.05468,2.21582,0,2.18946,0,4.43262.16211,6.94531.02734.48633.13574,1.459.18945,2.05372h-3.67481c.05371-.56739.08106-1.54.08106-1.97266.05371-2.08106.05371-3.62109.10742-5.89063-1.13477,1.70215-2.459,3.64747-3.37793,4.94532l-2.10742-2.97266c1.51367-1.83789,4.21582-5.40527,5.72851-7.64746l.1084-1.86523c-1.29687.1621-3.35058.43261-4.86425.62207l-.32422-3.43262a22.75519,22.75519,0,0,0,2.32422-.02637c.7832-.05469,1.94531-.18945,3.08007-.35156.05469-1,.1084-1.75684.1084-2.05371a14.20374,14.20374,0,0,0-.1084-2.37793l3.91895.10742c-.16211.75684-.37891,2.13574-.59473,3.81055Z"/><path class="cls-4" d="M453.47017,159.08011q-.97266.60791-1.86426,1.21582c-1.43262,1-4.24219,3.37793-5.918,4.72949a8.99807,8.99807,0,0,1,2.51269-.29687c4.54,0,7.999,2.83691,7.999,6.72851,0,4.21582-3.21582,7.56641-9.67383,7.56641-3.72949,0-6.54-1.70215-6.54-4.37793,0-2.16211,1.97266-4.16113,4.81055-4.16113a5.38676,5.38676,0,0,1,5.70117,4.5664,3.90031,3.90031,0,0,0,2.18945-3.64844c0-2.40429-2.43261-4.02636-5.54-4.02636-4.10742,0-6.78222,2.18945-9.64746,5.43164l-2.43164-2.5127c1.8916-1.54,5.10742-4.26953,6.70117-5.5664,1.48633-1.24317,4.27051-3.48633,5.59473-4.64844-1.37891.02734-5.05371.18945-6.459.29687a17.64619,17.64619,0,0,0-2.18848.2168l-.1084-3.48633c.75684.08106,1.67481.13477,2.43164.13477,1.40527,0,7.13477-.13477,8.64746-.26953a12.884,12.884,0,0,0,2.05371-.27051Zm-6.05274,16.83594c-.16211-1.7295-1.16211-2.86524-2.62109-2.86524-1,0-1.64844.59473-1.64844,1.27051,0,1,1.13477,1.67578,2.70215,1.67578A14.19078,14.19078,0,0,0,447.41743,175.91605Z"/><path class="cls-4" d="M392.27,257.55374v15.07813H389.1352V248.419h10.4043v9.13476Zm0-6.918V251.959h4.24316v-1.32325Zm4.24316,4.72852V253.959H392.27v1.40527Zm15.40332,13.86328c0,1.48633-.24316,2.29688-1.10839,2.81055a7.46744,7.46744,0,0,1-3.72852.59375,9.90109,9.90109,0,0,0-.64941-2.5127,9.39325,9.39325,0,0,0-.83692,1.29688,9.115,9.115,0,0,1-5.10742-3.4043c-.94629,1.29687-2.59473,2.459-5.40527,3.37793a10.21909,10.21909,0,0,0-1.86426-2.08106c3.02637-.81054,4.459-1.97265,5.10742-3.1621h-4.62109v-2.35059H398.81v-1.40527h-4.72949v-2.24317h2.1084a10.79553,10.79553,0,0,0-.89161-1.75683l2.459-.67481a8.8484,8.8484,0,0,1,1.29687,2.43164h2.81055c.32422-.81054.70215-1.7832.91895-2.459l2.94531.75683c-.40528.59473-.81055,1.18848-1.16211,1.70215h2.35156v2.24317h-5.24316v1.40527H407.187v2.35059H402.1606a8.11925,8.11925,0,0,0,5.1621,2.94531,5.3344,5.3344,0,0,0-.51367.56836,13.89459,13.89459,0,0,0,1.5127,0c.32519,0,.43262-.13574.43262-.46V257.6348H401.3227V248.419h10.59375Zm-7.54-18.5918V251.959h4.37793v-1.32325Zm4.37793,4.78223v-1.459h-4.37793v1.459Z"/><path class="cls-4" d="M423.08149,257.66116c-.40527,3.70215-1.10742,7.83692-2.8916,10.48536l-2.999-1.7295c1.59375-2.32422,2.37793-5.81054,2.72949-9.40429Zm5.02637-2.56738V267.9307c0,1.29687.18945,1.48632,1.459,1.48632H433.27c1.32324,0,1.54-.83789,1.72949-5.08105a9.79563,9.79563,0,0,0,2.999,1.40527c-.35157,5.02637-1.21582,6.6211-4.459,6.6211h-4.4043c-3.43261,0-4.37793-1.05372-4.37793-4.43164V255.09378Zm-1.18848-7.62012a39.93565,39.93565,0,0,1,9.05274,4.70215l-2.1084,2.83692a36.416,36.416,0,0,0-8.998-5.02637Zm11.43067,8.458a28.86837,28.86837,0,0,1,4.89062,9.72852l-3.26953,1.62109a29.19114,29.19114,0,0,0-4.5664-9.86328Z"/><path class="cls-4" d="M99.937,194.293a23.12026,23.12026,0,0,0-4.80957-3.13477l1.75684-2.32421a22.92759,22.92759,0,0,1,4.918,2.86425Zm2.62207,3.43164c-1.16211,2.86426-2.541,5.999-3.8916,8.70117l-2.83789-1.94531a78.41977,78.41977,0,0,0,4.35059-8.59375Zm-1.64843-10.51172a19.51967,19.51967,0,0,0-4.54-3.29687l1.8916-2.24317a23.03383,23.03383,0,0,1,4.72851,3.08106Zm16.51074,16.29492c.541,0,.62207-.541.70312-3.81054a8.784,8.784,0,0,0,2.75586,1.24316c-.24316,4.21582-1,5.4043-3.13476,5.4043h-2.10743c-2.54,0-3.10742-.94531-3.10742-3.78321v-7.10644h-2.29785c-.40527,5.05273-1.48633,8.94434-6.89062,11.1875a8.72786,8.72786,0,0,0-1.919-2.59473c4.59473-1.70215,5.26953-4.64746,5.59375-8.59277H102.937V192.4014h7.26953v-3.83789h-3.05371a16.991,16.991,0,0,1-1.97265,3.83789,18.25772,18.25772,0,0,0-2.78321-1.81055c1.6211-2.05371,2.72852-5.43164,3.26953-8.80957l3.21582.59375a30.03026,30.03026,0,0,1-.72949,3.16211h2.05371v-4.10742H113.395v4.10742h5.86426v3.02637H113.395v3.83789h7.02637v3.05371H115.6645v7.08008c0,.86426.08106.97265.541.97265Z"/><path class="cls-4" d="M128.3979,197.67093a24.79162,24.79162,0,0,1-1.59473,6.97168,13.509,13.509,0,0,0-2.35058-1.13477,19.70428,19.70428,0,0,0,1.37793-6.26953Zm16.51074.02637a20.38209,20.38209,0,0,0,5.67481,5.43164,12.599,12.599,0,0,0-2.18848,2.43261,22.03015,22.03015,0,0,1-4.59375-4.94531v6.02637h-3.08105v-5.918a18.92779,18.92779,0,0,1-5.459,5.16113,14.23468,14.23468,0,0,0-2.10742-2.459,16.94533,16.94533,0,0,0,6.4043-5.72949h-4.16114v-1.70215l-2.1084.97265c-.08105-.459-.24316-1-.40527-1.59375l-1.35058.10743V206.669h-2.75684V195.69827l-3.75586.29688-.32422-2.7832,1.94531-.1084c.40528-.48633.81055-1.02637,1.21582-1.59375a24.80116,24.80116,0,0,0-3.08007-3.78418l1.56738-2.16114c.18848.18848.40527.37793.62109.56739a33.1856,33.1856,0,0,0,1.94629-4.67481l2.7832.97266a61.01376,61.01376,0,0,1-3.05371,5.51269c.32422.35157.6211.7295.86426,1.05371a43.62216,43.62216,0,0,0,2.43262-4.37792L134.559,185.834c-1.48633,2.2705-3.32422,4.94531-5.02636,7.10742l2.35156-.13477c-.27051-.59472-.56836-1.18945-.86524-1.72949l2.26953-.94629a25.28287,25.28287,0,0,1,2.1084,4.64844v-6.67481h5.32325V186.6182h-6.05274V183.835h6.05274v-2.37793h3.08105V183.835h5.7832v2.78321h-5.7832v1.48632h5.43164v9.59278Zm-10.80859-.6211a21.6307,21.6307,0,0,1,1.32422,4.459l-2.40528.7832a18.61324,18.61324,0,0,0-1.16211-4.56641Zm4.10742-5.24218H140.937v-1.46h-2.72949Zm0,3.5664H140.937v-1.43164h-2.72949Zm8.05273-5.02637h-2.67578v1.46h2.67578Zm0,3.59473h-2.67578v1.43164h2.67578Z"/><path class="cls-10" d="M36.9707,329.9453V72.043c0-4.7334,4.2685-8.5752,9.5293-8.5752H721.9589c5.2637,0,9.5332,3.8418,9.5332,8.5752V329.9453c0,4.7403-4.2695,8.5801-9.5332,8.5801H46.5C41.2392,338.5254,36.9707,334.6856,36.9707,329.9453Z"/><rect class="cls-2" x="261.9589" y="37.1612" width="253.4317" height="51.6269"/><path class="cls-4" d="M298.43794,75.98929h15.23828v4.40723H278.62837V75.98929h14.70312V71.0889h-11.4082V66.8057h11.4082V62.06937h-9.30761V58.81644a52.91274,52.91274,0,0,1-4.57129,2.84179,18.0887,18.0887,0,0,0-3.08887-3.9541c7.042-3.542,13.67285-9.88379,16.7207-14.9082h5.06543A43.51826,43.51826,0,0,0,315.77583,57.21a23.90852,23.90852,0,0,0-3.25293,4.40625,52.172,52.172,0,0,1-4.44824-2.75879v3.21192h-9.63672V66.8057h11.53125v4.2832H298.43794Zm8.03125-18.24414a49.62948,49.62948,0,0,1-10.626-10.21289,47.43766,47.43766,0,0,1-10.2959,10.21289Z"/><path class="cls-4" d="M334.55806,44.48441a72.228,72.228,0,0,1-3.29493,7.94824V81.30277h-4.65332V60.38089c-.82421,1.11231-1.68847,2.22461-2.51269,3.21289a29.38021,29.38021,0,0,0-2.71777-5.10742A43.36068,43.36068,0,0,0,329.90376,43.084Zm16.67871,10.41894c2.26562,6.34277,6.05468,12.76758,10.04883,16.51465a20.09922,20.09922,0,0,0-3.665,3.78906,37.73729,37.73729,0,0,1-3.29493-4.36523v3.624h-5.51855v6.63086h-4.77734V74.46585H338.6352V70.67679a30.51536,30.51536,0,0,1-3.666,4.6543,19.97966,19.97966,0,0,0-3.5-3.707c4.15918-3.706,7.98926-10.21289,10.25488-16.7207h-8.11328V50.25h10.41895V43.125h4.77734V50.25h11.36719v4.65332Zm-7.207,15.19727V59.63968a53.488,53.488,0,0,1-5.02442,10.46094Zm9.84277,0a60.25032,60.25032,0,0,1-5.06543-10.749v10.749Z"/><path class="cls-4" d="M385.42036,74.67191c1.56445-.20606,2.71777-.41211,3.78906-.65918,5.23047-1.23536,9.26563-4.9834,9.26563-10.91309,0-5.64258-3.04688-9.84277-8.52442-10.79A88.71373,88.71373,0,0,1,387.521,63.38773c-2.42969,8.23632-5.97168,13.26074-10.41993,13.26074-4.48925,0-8.31835-4.9834-8.31835-11.86035,0-9.38965,8.19531-17.46192,18.77929-17.46192,10.08985,0,16.47364,7.042,16.47364,15.9375,0,8.56641-5.27149,14.66211-15.56739,16.22657Zm-3.1709-12.35547a65.43511,65.43511,0,0,0,2.18262-9.88379c-6.75391,1.40039-10.33691,7.331-10.33691,11.81933,0,4.11914,1.64746,6.13672,3.17089,6.13672C378.95454,70.3887,380.602,67.835,382.24946,62.31644Z"/><path class="cls-4" d="M439.37251,61.45218V66.1055H448.145v4.48926h-8.77246V75.042c0,1.4834.165,1.73047,1.31836,1.73047h3.1709c1.07031,0,1.27636-.82422,1.4414-4.69531a12.17685,12.17685,0,0,0,4.40625,1.93555c-.49414,5.43652-1.7705,7.084-5.39453,7.084h-4.48926c-4.44824,0-5.55957-1.44141-5.55957-6.01269V70.59476h-5.43652c-.90625,4.32422-3.624,8.40136-11.24316,10.95508a18.65733,18.65733,0,0,0-3.12989-3.91309c5.6836-1.72949,8.1543-4.2832,9.1836-7.042h-8.1543V66.1055h8.81348V61.45218h-3.459V60.0928a33.73233,33.73233,0,0,1-5.47754,3.25391,21.3078,21.3078,0,0,0-2.96582-3.707,25.494,25.494,0,0,0,6.83692-4.24121,43.7352,43.7352,0,0,0-4.07715-3.501l3.08887-2.55371c1.23535.86524,2.80078,2.05957,3.95312,3.04785a22.96931,22.96931,0,0,0,2.59473-3.707H416.392V44.48441h10.749l.86524-.165,3.29394,1.52441a28.21279,28.21279,0,0,1-6.71289,10.9541h14.90918a37.67183,37.67183,0,0,1-7.49609-12.60156l4.40723-1.23535a28.6252,28.6252,0,0,0,2.05859,4.40625,38.833,38.833,0,0,0,3.666-3.83008l3.70606,2.63574c-1.68848,1.52344-3.583,3.12989-5.27148,4.36524.57617.74121,1.19433,1.4414,1.85351,2.1416a39.97233,39.97233,0,0,0,4.61231-4.44727l3.583,2.55274a67.50657,67.50657,0,0,1-5.43652,4.44824,25.28182,25.28182,0,0,0,6.38379,3.74707,18.70212,18.70212,0,0,0-3.377,4.24219,28.6272,28.6272,0,0,1-5.06543-3.08887v1.31836Zm-5.10645,0h-5.06543V66.1055h5.06543Z"/><path class="cls-4" d="M494.518,71.542A48.788,48.788,0,0,1,489.1645,74.795a22.44367,22.44367,0,0,0,7.24805,2.59473,16.74311,16.74311,0,0,0-2.88281,4.03613,20.64754,20.64754,0,0,1-10.91407-6.25976l.165,3.33593c-5.35351.86524-11.07812,1.64747-15.36133,2.30664l-.65918-4.44824c1.23536-.124,2.67676-.28808,4.20118-.49414V69.56546h-4.24219V65.44632H473.02v-2.7998h-5.18848V58.56937H473.02V55.85062h-6.0127v.98925c0,7.207-.6582,17.91407-4.98242,24.668a20.80592,20.80592,0,0,0-4.36621-2.51172c4.07715-6.34179,4.40723-15.60839,4.40723-22.15625V44.69046h31.71094V55.85062h-5.60059v2.71875h5.92969v4.07715h-5.92969v2.7998h7.74219v4.11914h-4.32422ZM467.00727,51.69144h21.78614V48.80862H467.00727Zm8.44336,23.59863c2.09961-.28906,4.32422-.57715,6.50684-.90625a21.339,21.339,0,0,1-2.88281-4.81836h-3.624Zm2.0586-16.7207H483.646V55.85062h-6.13672Zm0,6.877H483.646v-2.7998h-6.13672Zm6.17773,4.11914a16.4698,16.4698,0,0,0,2.26465,2.79981,49.6381,49.6381,0,0,0,4.20117-2.79981Z"/></svg>