<svg width="288pt" height="266pt"
 viewBox="0.00 0.00 288.35 265.60" xmlns="http://www.w3.org/2000/svg" xmlns:xlink="http://www.w3.org/1999/xlink">
<g id="graph0" class="graph" transform="scale(1 1) rotate(0) translate(4 261.6)">
<title>boxes_and_circles</title>
<polygon fill="#ffffff" stroke="transparent" points="-4,4 -4,-261.6 284.3471,-261.6 284.3471,4 -4,4"/>
<!-- Traditional R plot\nboxplot(), hist(), ... -->
<g id="node1" class="node">
<title>Traditional R plot\nboxplot(), hist(), ...</title>
<polygon fill="none" stroke="#000000" points="128.6762,-257.4019 .1078,-257.4019 .1078,-216.1981 128.6762,-216.1981 128.6762,-257.4019"/>
<text text-anchor="middle" x="64.392" y="-241" font-family="Helvetica,sans-Serif" font-size="14.00" fill="#000000">Traditional R plot</text>
<text text-anchor="middle" x="64.392" y="-224.2" font-family="Helvetica,sans-Serif" font-size="14.00" fill="#000000">boxplot(), hist(), ...</text>
</g>
<!-- graphics -->
<g id="node4" class="node">
<title>graphics</title>
<polygon fill="none" stroke="#000000" points="113.7897,-180 44.9943,-180 44.9943,-144 113.7897,-144 113.7897,-180"/>
<text text-anchor="middle" x="79.392" y="-157.8" font-family="Helvetica,sans-Serif" font-size="14.00" fill="#000000">graphics</text>
</g>
<!-- Traditional R plot\nboxplot(), hist(), ...&#45;&gt;graphics -->
<g id="edge1" class="edge">
<title>Traditional R plot\nboxplot(), hist(), ...&#45;&gt;graphics</title>
<path fill="none" stroke="#000000" d="M68.5703,-215.964C70.1727,-207.9736 72.0285,-198.7191 73.746,-190.1547"/>
<polygon fill="#000000" stroke="#000000" points="77.2114,-190.6746 75.746,-180.1816 70.348,-189.2982 77.2114,-190.6746"/>
</g>
<!-- lattice -->
<g id="node2" class="node">
<title>lattice</title>
<polygon fill="none" stroke="#000000" points="200.392,-254.8 146.392,-254.8 146.392,-218.8 200.392,-218.8 200.392,-254.8"/>
<text text-anchor="middle" x="173.392" y="-232.6" font-family="Helvetica,sans-Serif" font-size="14.00" fill="#000000">lattice</text>
</g>
<!-- grid -->
<g id="node5" class="node">
<title>grid</title>
<polygon fill="none" stroke="#000000" points="200.392,-180 146.392,-180 146.392,-144 200.392,-144 200.392,-180"/>
<text text-anchor="middle" x="173.392" y="-157.8" font-family="Helvetica,sans-Serif" font-size="14.00" fill="#000000">grid</text>
</g>
<!-- lattice&#45;&gt;grid -->
<g id="edge3" class="edge">
<title>lattice&#45;&gt;grid</title>
<path fill="none" stroke="#000000" d="M173.392,-218.693C173.392,-210.2112 173.392,-199.9062 173.392,-190.4204"/>
<polygon fill="#000000" stroke="#000000" points="176.8921,-190.1995 173.392,-180.1995 169.8921,-190.1995 176.8921,-190.1995"/>
</g>
<!-- ggplot2 -->
<g id="node3" class="node">
<title>ggplot2</title>
<polygon fill="none" stroke="#000000" points="280.3023,-254.8 218.4817,-254.8 218.4817,-218.8 280.3023,-218.8 280.3023,-254.8"/>
<text text-anchor="middle" x="249.392" y="-232.6" font-family="Helvetica,sans-Serif" font-size="14.00" fill="#000000">ggplot2</text>
</g>
<!-- ggplot2&#45;&gt;grid -->
<g id="edge4" class="edge">
<title>ggplot2&#45;&gt;grid</title>
<path fill="none" stroke="#000000" d="M230.9945,-218.693C221.4499,-209.2991 209.6333,-197.669 199.1915,-187.3922"/>
<polygon fill="#000000" stroke="#000000" points="201.4657,-184.7196 191.8835,-180.1995 196.5555,-189.7086 201.4657,-184.7196"/>
</g>
<!-- grDevices -->
<g id="node6" class="node">
<title>grDevices</title>
<polygon fill="none" stroke="#000000" points="157.6139,-108 79.1701,-108 79.1701,-72 157.6139,-72 157.6139,-108"/>
<text text-anchor="middle" x="118.392" y="-85.8" font-family="Helvetica,sans-Serif" font-size="14.00" fill="#000000">grDevices</text>
</g>
<!-- graphics&#45;&gt;grDevices -->
<g id="edge2" class="edge">
<title>graphics&#45;&gt;grDevices</title>
<path fill="none" stroke="#000000" d="M89.2333,-143.8314C93.5877,-135.7925 98.8018,-126.1666 103.6089,-117.2918"/>
<polygon fill="#000000" stroke="#000000" points="106.7328,-118.8732 108.4181,-108.4133 100.5777,-115.5392 106.7328,-118.8732"/>
</g>
<!-- grid&#45;&gt;grDevices -->
<g id="edge5" class="edge">
<title>grid&#45;&gt;grDevices</title>
<path fill="none" stroke="#000000" d="M159.5132,-143.8314C153.1784,-135.5386 145.5536,-125.557 138.5994,-116.4533"/>
<polygon fill="#000000" stroke="#000000" points="141.3095,-114.2353 132.4577,-108.4133 135.7468,-118.4847 141.3095,-114.2353"/>
</g>
<!-- pdf -->
<g id="node7" class="node">
<title>pdf</title>
<polygon fill="none" stroke="#000000" points="73.392,-36 19.392,-36 19.392,0 73.392,0 73.392,-36"/>
<text text-anchor="middle" x="46.392" y="-13.8" font-family="Helvetica,sans-Serif" font-size="14.00" fill="#000000">pdf</text>
</g>
<!-- grDevices&#45;&gt;pdf -->
<g id="edge6" class="edge">
<title>grDevices&#45;&gt;pdf</title>
<path fill="none" stroke="#000000" d="M100.2234,-71.8314C91.6768,-63.2848 81.3363,-52.9443 72.0118,-43.6198"/>
<polygon fill="#000000" stroke="#000000" points="74.3512,-41.0095 64.8053,-36.4133 69.4015,-45.9592 74.3512,-41.0095"/>
</g>
<!-- png -->
<g id="node8" class="node">
<title>png</title>
<polygon fill="none" stroke="#000000" points="145.392,-36 91.392,-36 91.392,0 145.392,0 145.392,-36"/>
<text text-anchor="middle" x="118.392" y="-13.8" font-family="Helvetica,sans-Serif" font-size="14.00" fill="#000000">png</text>
</g>
<!-- grDevices&#45;&gt;png -->
<g id="edge7" class="edge">
<title>grDevices&#45;&gt;png</title>
<path fill="none" stroke="#000000" d="M118.392,-71.8314C118.392,-64.131 118.392,-54.9743 118.392,-46.4166"/>
<polygon fill="#000000" stroke="#000000" points="121.8921,-46.4132 118.392,-36.4133 114.8921,-46.4133 121.8921,-46.4132"/>
</g>
<!-- svg -->
<g id="node9" class="node">
<title>svg</title>
<polygon fill="none" stroke="#000000" points="217.392,-36 163.392,-36 163.392,0 217.392,0 217.392,-36"/>
<text text-anchor="middle" x="190.392" y="-13.8" font-family="Helvetica,sans-Serif" font-size="14.00" fill="#000000">svg</text>
</g>
<!-- grDevices&#45;&gt;svg -->
<g id="edge8" class="edge">
<title>grDevices&#45;&gt;svg</title>
<path fill="none" stroke="#000000" d="M136.5606,-71.8314C145.1072,-63.2848 155.4477,-52.9443 164.7722,-43.6198"/>
<polygon fill="#000000" stroke="#000000" points="167.3825,-45.9592 171.9787,-36.4133 162.4328,-41.0095 167.3825,-45.9592"/>
</g>
</g>
</svg>
